<?xml version="1.0" encoding="utf-8"?>
<!-- Generator: Adobe Illustrator 24.2.0, SVG Export Plug-In . SVG Version: 6.00 Build 0)  -->
<svg version="1.1" id="Layer_1" xmlns="http://www.w3.org/2000/svg" xmlns:xlink="http://www.w3.org/1999/xlink" x="0px" y="0px"
	 viewBox="0 0 1032.7 626.2" style="enable-background:new 0 0 1032.7 626.2;" xml:space="preserve">
<style type="text/css">
	.st0{fill:#EC3640;}
	.st1{fill:#2C78BA;}
</style>
<g>
	<path class="st0" d="M221.4,0.6c8.5-1.5,17.6-0.3,25.3,3.9c10.2,5.9,17.6,16.8,18.1,28.7c1,15.9-10.6,30.9-25.7,35.2
		c-9.6,2.5-20.4,1.8-29.1-3.3c-11.3-6.2-18.8-19-17.9-31.9C192.9,17.4,205.8,3.1,221.4,0.6z"/>
	<path class="st0" d="M319.6,0.9c8.8-1.9,18.3-0.8,26.3,3.5c10.9,6.1,18.7,18.2,18.5,30.8c-0.2,13.1-8.4,25.6-20.2,31.1
		c-8.3,4.2-18.2,4.5-27.1,1.9c-11.9-3.3-21.7-13.4-24.5-25.4c-1.4-6.3-1-13,1-19.1C297.5,12.3,307.8,3.3,319.6,0.9z"/>
	<path class="st0" d="M419.5,0.9c9.3-2,19.3-0.4,27.5,4.5c6.7,4.3,12,10.8,14.8,18.2c3.9,11.2,1.7,24.3-6.1,33.3
		c-10.6,13.3-30.9,16.7-45.8,8.8c-10.3-5.3-17.5-15.9-18.9-27.3C389.4,21.1,402.4,3.7,419.5,0.9z"/>
	<path class="st0" d="M185.5,112.8c7.3-14.3,22.5-23.9,38.4-25.1c15.8-1.7,32.1,5.2,42.3,17.3c5.8,7,8.6,15.9,11.9,24.3
		c16.4,43.8,33.1,87.5,49.6,131.2c0.9-1.1,1.4-2.5,1.9-3.8c16.1-42.2,31.9-84.6,47.9-126.8c3.8-9.8,6.9-20.7,15-28
		c7.5-7.3,17.1-12.4,27.5-13.8c15-2.3,31,2.7,41.8,13.3c5.7,5.1,9.1,12.1,12,19c13.8,36.6,27.5,73.2,41.4,109.7
		c4.1,10.3,7.9,20.7,11.7,31.1c-0.7,3.5-2.3,6.8-3.6,10c-5.6,14-10.7,28.2-16.2,42.3c-8.4,24-18.5,47.3-26.5,71.4
		c-2.5,6.8-2.8,14.3-1.9,21.4c-17.1-45-34-90.1-51.1-135.1c-2.6,4.9-3.9,10.3-6.2,15.3c-15.1,39.9-30.2,79.8-45.3,119.7
		c-3,8.6-6.9,17.2-13.3,23.8c-9.5,9.2-22.6,14.6-35.9,14.4c-14-0.5-27.9-6.6-36.9-17.4c-6.3-7.3-9.1-16.7-12.4-25.6
		c-16.5-43.4-32.6-87-49.4-130.2c-16.4,42.5-32.2,85.3-48.5,127.9c-3,7.8-5.2,16-9.8,23.1c-8.2,13.4-23.7,21.3-39.1,22.2
		c-15.2,0.4-30.7-6.1-40.3-18c-9.9-11.9-13-28.9-7.7-43.5c30.2-80.1,60.5-160.2,90.6-240.3C177.6,132.8,180.9,122.5,185.5,112.8z"/>
	<path class="st0" d="M31.8,526.2c3.3-5.9,11-8.5,17.3-6.1c4.7,1.2,7.6,5.5,9.3,9.8c5.2,13.5,10.2,27.1,15.4,40.6
		c1.8-2.4,2.3-5.4,3.5-8c4.6-11.5,8.8-23.1,13.2-34.7c3.2-7.7,13.5-10.8,20.6-6.6c4,2.1,6,6.4,7.6,10.4c8.3,22.1,16.6,44.1,25,66.2
		c1.8,5,4.6,10,4.4,15.5c-0.7,8.5-10.1,14.7-18.2,12.2c-4.3-1-8.1-4.1-9.7-8.3c-4.4-11.3-8.5-22.7-13-33.9c-1.2-2.8-1.8-6-3.4-8.6
		c-4.6,12.1-9.6,24.1-13.8,36.3c-1.6,4.1-3.2,8.5-6.5,11.6c-5,4.4-13,4.6-18.3,0.5c-4-2.8-5.2-7.7-6.9-12
		c-4.2-11.4-8.6-22.7-12.9-34c-0.3-0.9-0.8-1.6-1.5-2.2c-4,11.3-8.4,22.4-12.5,33.6c-2.1,5.3-3.6,11.6-8.7,15
		c-6.6,4.8-17.1,2.4-20.8-4.9c-2.8-4.2-1.7-9.4,0-13.8c8.1-21.5,16.4-43,24.4-64.6C27.9,535.6,29.5,530.7,31.8,526.2z"/>
	<g>
		<path class="st0" d="M182.1,537.3c7.2-1.9,14.7-2,22-0.8c10.3,1.8,20.4,7.9,25.3,17.4c4.1,7.4,5.8,16,5.3,24.4
			c-0.1,4.3-3,8-6.6,10c-2.7,1.5-6,1.4-9,1.5c-12.8,0-25.7,0.2-38.6,0.1c1.4,4.1,3.7,8.2,7.8,10c8.4,4.1,17.9,1.9,26.7,0.6
			c7.2-1.3,14.4,5.4,13.5,12.6c-0.5,5.5-5.2,9.8-10.5,10.7c-16.7,3.6-35.7,3.8-50.4-6c-8.8-5.6-13.5-15.5-15.3-25.4
			c-2.7-11.3-0.6-23.3,4-33.9C161,547.9,171,540.2,182.1,537.3z M186.1,559.4c-3.5,2.6-5.7,7-5.8,11.3c9.3-0.3,18.7,0.4,28-0.4
			c0-5.8-4.1-12.2-10.2-13.1C194,556.6,189.5,556.9,186.1,559.4z"/>
	</g>
	<path class="st0" d="M270.4,539.5c12.8-5.3,27.4-4.8,40.5-1c6.5,1.6,9.8,9.8,7.1,15.7c-2,5-7.9,7.9-13.1,6.8
		c-6.7-1.2-13.8-2.2-20.3,0.4c-6.7,2.6-10.7,9.8-10.7,16.8c-0.3,6.6,0.5,13.8,5.3,18.8c4.6,4.5,11.4,5.2,17.5,5
		c0.2-5.3-0.2-10.6,0.4-15.8c2-6.2,8.4-10.8,15-10.1c6.7,0.3,13.4,6.1,13.2,13.2c0,8,0.2,16-0.2,24c-0.6,5.6-6,8.9-11,9.9
		c-13.2,3.2-27.4,4.3-40.6,0.7c-11-3.2-21.1-10.8-25.3-21.8c-5.5-14.1-5.6-30.7,1.4-44.3C253.9,549.4,261.7,543,270.4,539.5z"/>
	<g>
		<path class="st0" d="M350.1,538.5c13-3.3,27-4.3,39.9-0.2c7.2,2.2,13.6,7.2,17.1,13.9c3.4,6.1,4.3,13.2,4.2,20
			c0.1,13,0.2,26-0.1,39c0,4.2-2.4,8.2-6.2,10c-4,1.9-8.5,2.4-12.8,3.3c-12.4,1.9-25.2,2.1-37.3-1.4c-8-2.4-15.8-7.9-18.4-16.2
			c-2.4-7.5-2.6-16.2,1-23.4c4.2-7,11.7-11.5,19.5-13.4c8.9-2.4,18.2-2,27.3-2c0.1-5-4.5-8.5-9-9.3c-7.2-1.3-14.6-0.4-21.8,0.8
			c-6.9,1.2-13.8-6-11.9-12.9C342.6,542.7,346,539.4,350.1,538.5z M360.5,592.6c-1.5,4,0.6,8.8,4.5,10.6c6,3.1,13,2,19.4,1
			c0.2-6.2,0-12.3,0-18.5c-4.8,0-9.5-0.2-14.3,0.3C366.1,586.6,362.1,588.9,360.5,592.6z"/>
	</g>
</g>
<g>
	<path class="st1" d="M618.5,0.9c10.7-2.3,22.4,0.1,31.1,6.8c8.5,6.8,13.9,17.6,13.5,28.6c-0.5,16.2-13.8,30.9-29.9,33.1
		c-9.2,1.6-19.2-0.1-27-5.4c-9.7-6.2-15.9-17.3-16-28.7C590,19,602.7,4,618.5,0.9z"/>
	<path class="st1" d="M819.2,0.5c8.8-1.4,18.1,0.2,25.8,4.8c10.7,6.7,17.9,19.2,16.8,32c-0.8,15.6-13.5,29.2-28.7,31.9
		c-9.9,1.9-20.9,0.2-29.1-6c-9.3-6.5-15.3-17.6-15-29C789.2,17.6,803,2.9,819.2,0.5z"/>
	<path class="st1" d="M614.8,88.9c22-5.8,47.5,6,56.3,27.3c7.8,19.6,14.9,39.5,22.5,59.2c10.7,28.4,21.5,56.7,32,85.1
		c0.3-0.3,0.9-1,1.2-1.3c17.9-46.9,35.3-94,53.4-140.9c6.2-17,22.9-29,40.8-30.6c14.4-1.4,29.3,3.9,39.5,14.2
		c8.4,7.7,11.6,19,15.5,29.3c29.1,77.2,58.4,154.4,87.4,231.7c3.1,8.8,7.1,17.3,9.3,26.4c3.9,18-4.9,37.7-20.5,47.3
		c-10.9,7-24.6,9.9-37.4,7c-11.5-2.6-22.5-8.9-29.3-18.7c-6.3-8.6-8.8-19.2-12.8-28.9c-15.7-41.6-31.4-83.3-47.1-124.9
		c-17.1,44.9-33.9,90-51,134.9c-2.8,7.9-5.9,16.1-11.7,22.4c-9.5,10.6-23.8,16.5-38,16.4c-14.7-0.5-29.3-7.4-38.2-19.3
		c-6-7.9-8.5-17.8-12.2-26.9c-13.9-36.8-27.7-73.6-41.6-110.3c-2.4-5.6-4.2-11.5-6.7-17c-17.8,47.7-36,95.1-53.8,142.8
		c-6.2,17.4-23.7,29.1-41.7,30.6c-17,1.3-34.8-6.6-44.4-20.9c-3.7-5.2-5.8-11.3-7.8-17.2c-0.8-7.2-0.5-14.6,1.9-21.4
		c8-24.1,18.1-47.4,26.5-71.4c5.5-14.1,10.6-28.3,16.2-42.3c1.3-3.3,2.9-6.5,3.6-10c18.3-47.6,36-95.4,54.1-143.1
		C586.5,103.6,599.7,92.5,614.8,88.9z"/>
	<path class="st1" d="M484.6,522.8c6.2-5.8,17.6-4.6,21.9,2.8c3.5,6.1,5.1,12.9,7.7,19.3c3.3,8.3,6.3,16.7,9.4,25.1
		c0.2,0,0.7,0,0.9,0c4.5-11.9,9.3-23.7,13.6-35.7c2-4.9,3.4-10.8,8.6-13.4c7.5-4.5,18.2-0.8,21,7.6c9.7,25.1,18.8,50.4,28.5,75.4
		c1.8,4.2,3.1,9,1,13.4c-3.3,7.8-13.8,11.1-20.9,6.6c-5.2-2.6-6.6-8.5-8.5-13.4c-4.4-12.2-9.2-24.3-13.8-36.5
		c-5.3,13.5-10.2,27.1-15.4,40.7c-1.5,3.8-3.7,7.8-7.6,9.6c-6.7,3.7-16.1,1.2-19.5-5.7c-3.9-8.4-6.5-17.4-10-26
		c-2.4-6.2-4.7-12.4-6.9-18.6c-6,14.2-10.7,28.9-16.6,43.2c-2.8,7.4-12.3,10.9-19.3,7.5c-5-2-8.3-7.2-8.7-12.5
		c0.2-3.6,1.8-6.9,3-10.2c8.6-22.7,17.3-45.4,25.8-68.2C480.4,530.1,481.4,525.7,484.6,522.8z"/>
	<g>
		<path class="st1" d="M875.3,546.4c8.8-8,21.1-11.4,32.8-10.7c11.9,0.3,23.8,6.1,30.3,16.3c4.9,7.8,6.7,17.3,6.4,26.4
			c-0.1,6.5-6.2,12-12.6,11.6c-13.7,0-27.5,0-41.2,0.1c1.2,5.5,5.6,10.2,11.2,11.4c7.9,2.1,16,0.3,23.9-0.9
			c6.7-0.7,12.6,5.3,12.8,11.8c0,5.1-3.8,9.8-8.7,11.2c-9.4,2.7-19.4,3.2-29.1,2.5c-9.2-0.8-18.5-3.8-25.7-9.8
			c-6.8-5.2-10.5-13.5-12.4-21.6c-2.4-10-1.8-20.5,1.2-30.3C866.4,557.5,869.7,550.9,875.3,546.4z M895.8,560
			c-3.3,2.5-5,6.6-5.4,10.6c9.4,0.2,18.8,0,28.1,0c-0.5-5.4-3.5-11.1-8.9-12.9C905.1,556.3,899.6,556.8,895.8,560z"/>
	</g>
	<g>
		<path class="st1" d="M621.1,538.4c12.7-3.1,26.4-4.2,39.1-0.4c8.5,2.5,15.8,8.7,19.2,16.9c2.5,6.4,3,13.5,2.9,20.3
			c0,12,0.1,24,0,36c0.1,5.3-3.8,10.1-8.9,11.2c-13.8,3.7-28.4,4.7-42.5,2.1c-9.2-1.8-18.7-6.5-22.6-15.5c-3.1-8-3.7-17.6,0.1-25.5
			c4.8-7.6,13.1-12.3,21.8-14c8.5-1.9,17.2-1.4,25.8-1.7c-1.1-4.3-4.5-7.8-8.8-8.8c-7.6-1.8-15.4-0.5-23,0.7
			c-7.2,1-13.9-7-11.5-13.9C613.7,542,617.2,539.3,621.1,538.4z M631.1,595.2c-0.5,4.5,3.4,8.2,7.5,9.2c4.4,1,9,0.8,13.5,0.4
			c1-0.3,2.9,0.1,3.3-1.3c0.2-5.9,0.1-11.8,0-17.8c-5.4,0.2-10.9-0.4-16.3,0.8C635.2,587.6,631.1,590.8,631.1,595.2z"/>
	</g>
	<g>
		<path class="st1" d="M705.5,536.8c14.2-1.3,28.8-2.4,42.7,1.3c8.7,2.3,17,8.2,19.9,17c2.3,7.4,1.9,15.6-1.2,22.7
			c-1.7,3.8-5,6.4-7.8,9.3c2.5,7.3,7.9,13.3,10.2,20.7c1.7,5.9-1.6,12.7-7.2,15.2c-5.9,3.4-14.2,1.6-18.1-3.9
			c-4.9-7.1-7-15.8-12-22.8c-2.1-3.2-7.2-1.9-8.4,1.4c-1.2,6.8,1.4,14.3-2.3,20.6c-4.4,7.3-15.4,9.3-21.8,3.5
			c-3.7-2.7-5.3-7.3-5.1-11.8c0-19.7,0-39.3,0-59c0.1-2.9-0.1-5.9,1.5-8.5C697.8,539.5,701.5,537.2,705.5,536.8z M723.2,558.3
			c0,7.4-0.1,14.8,0,22.1c5,0.1,11.1-0.1,14.3-4.7c2.4-4.5,3.1-11.2-0.9-15C733.1,557.3,727.7,558.1,723.2,558.3z"/>
	</g>
	<path class="st1" d="M783.1,541.2c5.1-6.1,15.3-6.6,21.1-1.1c2.3,2.5,4.7,5.5,4.6,9.1c0.2,6.7-0.3,13.4,0.3,20
		c0.5,3.1,5.4,3.7,6.8,1c4.4-8.4,8.5-17,12.7-25.5c2.4-5,7.8-8.5,13.4-8c7.2-0.1,13.7,6.3,13.6,13.5c0,5.5-3.4,10-5.8,14.6
		c-2.4,4.5-4.8,8.9-7.2,13.3c5.1,8.9,9.8,18,14.4,27.2c4,6.7-0.1,15.9-7.2,18.5c-6.4,2.9-14.8,0.1-18.1-6.2
		c-5.6-9.9-10.1-20.4-15.8-30.2c-1.4-3.4-6.9-1.5-6.9,1.7c-0.3,7.9,0,15.9-0.2,23.8c-1.1,7.6-9.1,13.2-16.7,12
		c-6.7-0.9-12.5-6.8-12.4-13.8c-0.1-19.7,0-39.3-0.1-59C779.5,548.3,780.4,544.2,783.1,541.2z"/>
	<path class="st1" d="M950.2,545.3c1.8-4.7,6.9-7.8,11.8-7.6c19.7,0,39.4-0.1,59.1,0c7.9-0.2,13.9,9.1,10.7,16.3
		c-1.6,4.3-6.1,7.2-10.7,7.3c-5.1,0.2-10.1,0-15.2,0c-0.2,17,0,33.9-0.1,50.9c0,4.8-3.4,8.9-7.4,11.3c-6.8,3.9-16.4,1.5-20.2-5.5
		c-2.4-4.2-1.7-9.2-1.8-13.9c0-14.3,0-28.5,0-42.8c-6.3-0.3-12.8,0.8-19-0.8C951.2,558.8,947.8,551.3,950.2,545.3z"/>
</g>
</svg>
