<svg xmlns:xlink="http://www.w3.org/1999/xlink" xmlns="http://www.w3.org/2000/svg" width="127" height="31" viewBox="0 0 127 31" fill="none">
<path d="M8.13755 16.4568H10.9721C11.0456 16.4568 11.1163 16.4279 11.1687 16.3763C11.2211 16.3247 11.2512 16.2546 11.2524 16.181V12.6638C11.2524 12.5895 11.2228 12.5182 11.1703 12.4656C11.1177 12.4131 11.0464 12.3835 10.9721 12.3835H8.13755C8.10074 12.3835 8.06429 12.3763 8.03029 12.3622C7.99628 12.3481 7.96538 12.3275 7.93936 12.3014C7.91333 12.2754 7.89268 12.2445 7.8786 12.2105C7.86451 12.1765 7.85726 12.1401 7.85726 12.1032V7.41066C7.85726 7.33632 7.82773 7.26503 7.77517 7.21247C7.7226 7.1599 7.65131 7.13037 7.57697 7.13037H6.09867C6.02736 7.13022 5.95868 7.15726 5.9066 7.20597C5.85453 7.25469 5.82298 7.32142 5.81838 7.39258C5.67246 9.3308 4.80259 11.1432 3.38167 12.4694C2.48529 13.3148 1.40054 13.9347 0.217115 14.2777C0.153822 14.2932 0.0977533 14.33 0.0582632 14.3818C0.0187731 14.4336 -0.0017503 14.4974 0.000117049 14.5626V16.2036C0.000112131 16.2402 0.00739209 16.2764 0.0215326 16.3102C0.0356731 16.344 0.0563913 16.3746 0.0824795 16.4002C0.108568 16.4259 0.139504 16.4461 0.173485 16.4597C0.207467 16.4733 0.243813 16.48 0.280406 16.4794H3.09234C3.12953 16.4794 3.16635 16.4868 3.20066 16.5011C3.23496 16.5155 3.26606 16.5366 3.29215 16.5631C3.31824 16.5896 3.33879 16.621 3.35261 16.6555C3.36642 16.6901 3.37323 16.727 3.37263 16.7642C3.37263 21.2533 3.37263 25.6928 3.37263 26.0002C3.75238 30.2904 7.039 30.973 8.74786 30.973C9.51089 30.9738 10.2708 30.875 11.0083 30.6792C11.0684 30.664 11.1216 30.6289 11.1593 30.5797C11.1971 30.5305 11.2171 30.47 11.2162 30.408V27.2208C11.2156 27.183 11.2075 27.1457 11.1924 27.1111C11.1772 27.0764 11.1554 27.0452 11.128 27.0191C11.1007 26.993 11.0684 26.9726 11.0331 26.9591C10.9978 26.9456 10.9601 26.9393 10.9224 26.9405C10.6828 26.9405 10.3573 26.9405 10.19 26.9405C8.60771 26.9405 7.8437 26.1946 7.82561 24.5942C7.82561 23.5228 7.82561 18.0029 7.82561 16.7145C7.82777 16.6765 7.83774 16.6395 7.85489 16.6056C7.87205 16.5717 7.89602 16.5417 7.92531 16.5175C7.95459 16.4933 7.98856 16.4754 8.02509 16.465C8.06161 16.4545 8.0999 16.4517 8.13755 16.4568Z" fill="#6B3404"/>
<path d="M6.88373 5.59777C6.42823 5.59867 5.98272 5.46436 5.60361 5.21185C5.22451 4.95935 4.92887 4.60002 4.75415 4.17936C4.57943 3.75871 4.53348 3.29567 4.62212 2.84888C4.71076 2.40209 4.93001 1.99166 5.2521 1.66958C5.57418 1.34749 5.98461 1.12824 6.4314 1.0396C6.87819 0.950958 7.34123 0.996908 7.76188 1.17163C8.18254 1.34636 8.54187 1.64199 8.79437 2.02109C9.04688 2.4002 9.18119 2.84571 9.18029 3.30121C9.1791 3.90993 8.93675 4.49337 8.50632 4.9238C8.07589 5.35423 7.49245 5.59658 6.88373 5.59777Z" fill="#6B3404"/>
<path d="M27.5764 25.4488C27.5764 23.2924 27.6035 20.1775 27.5764 17.9849V17.9171C27.2961 15.0645 24.769 13.0301 22.061 12.569C21.6807 12.4981 21.2951 12.4588 20.9082 12.4515C18.7473 12.4153 16.4281 13.1386 14.9589 14.748C14.2857 15.4701 13.8053 16.3501 13.5619 17.3068C13.5523 17.3481 13.5523 17.3911 13.5617 17.4325C13.5711 17.4738 13.5898 17.5125 13.6164 17.5456C13.6429 17.5786 13.6767 17.6053 13.715 17.6234C13.7533 17.6416 13.7953 17.6508 13.8377 17.6504L17.7753 17.6188C17.8205 17.6175 17.8649 17.6059 17.9049 17.5847C17.9449 17.5635 17.9794 17.5334 18.0059 17.4967C18.2861 17.1402 18.6505 16.8589 19.0664 16.6782C19.4822 16.4975 19.9365 16.423 20.3883 16.4614C21.8214 16.4614 22.8522 17.3113 23.0692 18.4867C23.0954 18.6363 23.1135 18.7873 23.1234 18.9388C23.1234 19.1558 23.1234 19.9831 23.1234 19.9831C22.529 19.8315 21.9248 19.7212 21.3151 19.6531C19.8735 19.4966 18.415 19.6586 17.0429 20.1278C15.9932 20.5302 15.0944 21.2487 14.4708 22.1841C13.8472 23.1195 13.5296 24.2256 13.5619 25.3493C13.5222 26.5903 13.9244 27.8051 14.6969 28.7771C15.4693 29.7491 16.5619 30.4153 17.7798 30.6567C18.8035 30.8877 19.8498 31.0029 20.8992 31.0003C23.0245 31.0102 25.1339 30.6334 27.1243 29.8882C27.2899 29.8336 27.4434 29.7477 27.5764 29.635C27.5764 29.635 27.5764 26.7101 27.5764 25.4488ZM23.0963 26.6694C23.0963 27.2028 22.4679 27.4153 22.0384 27.5193C21.6591 27.6082 21.2707 27.6522 20.8811 27.6504C20.4565 27.6787 20.0306 27.6226 19.6278 27.4852C19.2251 27.3479 18.8536 27.1321 18.5348 26.8502C18.2923 26.5514 18.1248 26.199 18.0461 25.8223C17.9675 25.4456 17.98 25.0556 18.0827 24.6848C18.3359 23.4641 19.2717 23.0211 20.4245 22.9352C21.1249 22.8911 21.8276 22.9723 22.4995 23.1748C22.7844 23.2607 23.0827 23.4235 23.1189 23.749C23.1551 24.0745 23.1053 26.484 23.1053 26.6694H23.0963Z" fill="#6B3404"/>
<path d="M56.4453 30.6747V14.2461C56.4451 14.2022 56.4553 14.1589 56.4749 14.1196C56.4945 14.0804 56.5231 14.0463 56.5583 14.0201C57.0104 13.681 58.9679 12.474 62.7202 12.4197C63.9383 12.398 65.1515 12.5798 66.3097 12.9577C67.5407 13.3003 68.6216 14.0451 69.3802 15.0733C70.1389 16.1015 70.5317 17.354 70.4959 18.6313C70.5231 21.1403 70.4959 29.0788 70.4959 30.6656C70.4959 30.74 70.4664 30.8113 70.4139 30.8638C70.3613 30.9164 70.29 30.9459 70.2157 30.9459H66.3504C66.276 30.9459 66.2047 30.9164 66.1522 30.8638C66.0996 30.8113 66.0701 30.74 66.0701 30.6656V19.4224C66.0701 15.955 62.5167 16.4929 62.5167 16.4929C61.3097 16.6964 60.9073 17.049 60.9073 18.5499V30.6747C60.9073 30.749 60.8778 30.8203 60.8252 30.8729C60.7727 30.9254 60.7014 30.955 60.6271 30.955H56.7256C56.6513 30.955 56.58 30.9254 56.5274 30.8729C56.4748 30.8203 56.4453 30.749 56.4453 30.6747Z" fill="#6B3404"/>
<path d="M78.2104 30.973C76.4971 30.973 73.2104 30.2994 72.8307 26.0002C72.781 25.4125 72.8307 9.72529 72.8307 7.42873C72.8307 7.35439 72.8602 7.2831 72.9128 7.23053C72.9654 7.17797 73.0366 7.14844 73.111 7.14844H77.035C77.1094 7.14844 77.1807 7.17797 77.2332 7.23053C77.2858 7.2831 77.3153 7.35439 77.3153 7.42873V12.1304C77.3153 12.1672 77.3226 12.2036 77.3367 12.2376C77.3507 12.2716 77.3714 12.3025 77.3974 12.3285C77.4234 12.3546 77.4543 12.3752 77.4884 12.3893C77.5224 12.4034 77.5588 12.4106 77.5956 12.4106H80.4075C80.4819 12.4106 80.5532 12.4402 80.6057 12.4927C80.6583 12.5453 80.6878 12.6166 80.6878 12.6909V16.1855C80.6884 16.2223 80.6818 16.2589 80.6682 16.2931C80.6547 16.3274 80.6346 16.3586 80.6089 16.385C80.5833 16.4115 80.5528 16.4326 80.519 16.4473C80.4852 16.4619 80.4489 16.4697 80.4121 16.4703H77.5775C77.504 16.4703 77.4333 16.4992 77.3809 16.5508C77.3285 16.6024 77.2984 16.6725 77.2972 16.7461C77.2972 18.0436 77.2972 23.5589 77.2972 24.6304C77.2972 26.2307 78.0839 26.9766 79.6616 26.9766C79.8244 26.9766 80.1544 26.9766 80.394 26.9766C80.4315 26.9754 80.469 26.9818 80.504 26.9953C80.5391 27.0089 80.5711 27.0293 80.598 27.0555C80.625 27.0816 80.6465 27.1129 80.6612 27.1475C80.6758 27.1822 80.6833 27.2194 80.6833 27.2569V30.4215C80.6842 30.4823 80.6647 30.5417 80.6278 30.5901C80.5909 30.6385 80.5388 30.673 80.4799 30.6882C79.7395 30.8839 78.9762 30.9797 78.2104 30.973Z" fill="#6B3404"/>
<path d="M35.3003 30.973C33.5869 30.973 30.3003 30.2994 29.9205 26.0002C29.8708 25.4125 29.9205 9.72529 29.9205 7.42873C29.9205 7.35439 29.9501 7.2831 30.0026 7.23053C30.0552 7.17797 30.1265 7.14844 30.2008 7.14844H34.1204C34.1951 7.14843 34.2669 7.17781 34.3202 7.23025C34.3735 7.28269 34.404 7.35398 34.4052 7.42873C34.4052 9.58967 34.3735 23.5092 34.4052 24.6349C34.4052 26.2352 35.1918 26.9812 36.7695 26.9812C36.9368 26.9812 37.2623 26.9812 37.5064 26.9812C37.544 26.98 37.5814 26.9863 37.6165 26.9999C37.6515 27.0134 37.6835 27.0338 37.7105 27.06C37.7375 27.0861 37.7589 27.1175 37.7736 27.1521C37.7882 27.1867 37.7958 27.2239 37.7958 27.2615V30.426C37.7967 30.4868 37.7771 30.5462 37.7402 30.5946C37.7033 30.643 37.6512 30.6775 37.5923 30.6927C36.8444 30.8889 36.0734 30.9832 35.3003 30.973Z" fill="#6B3404"/>
<path d="M46.768 30.9369C46.3817 30.9355 45.9961 30.9022 45.6152 30.8374C42.9028 30.3853 40.3802 28.3374 40.1179 25.4803C40.0275 24.4586 40.0637 19.9694 40.0773 18.7624C40.1089 15.8917 41.5646 13.8709 44.2997 12.9215C45.1656 12.5889 46.0846 12.4158 47.0122 12.4106C47.9508 12.417 48.8827 12.5696 49.7744 12.8627C52.2563 13.6493 54.1324 15.8012 54.1324 18.5182V23.3419C54.1324 23.4163 54.1029 23.4876 54.0503 23.5401C53.9978 23.5927 53.9265 23.6222 53.8521 23.6222H44.8105C44.7739 23.6216 44.7376 23.6283 44.7036 23.6419C44.6696 23.6555 44.6387 23.6757 44.6126 23.7014C44.5865 23.727 44.5658 23.7576 44.5517 23.7914C44.5375 23.8252 44.5302 23.8614 44.5302 23.898C44.523 24.2429 44.5457 24.5878 44.5981 24.9287C44.8151 26.0951 45.8413 26.9224 47.2698 26.945C47.72 26.9845 48.1729 26.9109 48.5874 26.7309C49.0019 26.5509 49.3648 26.2702 49.6433 25.9143C49.6692 25.8781 49.7031 25.8484 49.7422 25.8272C49.7814 25.8061 49.8248 25.7941 49.8693 25.7922L53.7934 25.7606C53.8356 25.7594 53.8775 25.768 53.9158 25.7856C53.9542 25.8033 53.988 25.8295 54.0147 25.8622C54.0413 25.895 54.0601 25.9334 54.0695 25.9746C54.079 26.0157 54.0788 26.0585 54.0691 26.0996C53.8251 27.0547 53.3447 27.9331 52.6722 28.6539C51.2255 30.2587 48.9154 30.973 46.768 30.9369ZM47.1116 16.4161C46.7756 16.4127 46.4423 16.477 46.1316 16.6052C45.821 16.7333 45.5393 16.9227 45.3033 17.162C44.5167 17.917 44.4941 19.0472 44.5257 19.6801C44.5281 19.7528 44.5586 19.8218 44.6109 19.8725C44.6633 19.9231 44.7332 19.9514 44.806 19.9513H49.4353C49.5089 19.9513 49.5795 19.9224 49.6319 19.8708C49.6844 19.8193 49.7144 19.7491 49.7156 19.6756C49.7156 19.0381 49.6387 17.8672 48.9019 17.162C48.6717 16.92 48.3937 16.7286 48.0854 16.6002C47.7772 16.4718 47.4455 16.409 47.1116 16.4161Z" fill="#6B3404"/>
<path d="M106.069 30.9368C105.682 30.9307 105.297 30.8929 104.916 30.8237C102.204 30.3717 99.6855 28.3237 99.4187 25.4666C99.3283 24.4449 99.3645 19.9557 99.378 18.7487C99.4097 15.878 100.87 13.8572 103.6 12.9078C104.467 12.576 105.385 12.403 106.313 12.397C107.252 12.4034 108.183 12.5559 109.075 12.8491C111.557 13.6357 113.433 15.7876 113.433 18.5046V23.3418C113.433 23.4162 113.404 23.4875 113.351 23.54C113.299 23.5926 113.227 23.6221 113.153 23.6221H104.111C104.075 23.6215 104.038 23.6282 104.004 23.6418C103.97 23.6554 103.939 23.6756 103.913 23.7013C103.887 23.7269 103.867 23.7575 103.852 23.7913C103.838 23.825 103.831 23.8613 103.831 23.8979C103.824 24.2428 103.846 24.5876 103.899 24.9286C104.116 26.095 105.142 26.9223 106.571 26.9449C107.022 26.9852 107.475 26.9119 107.891 26.7319C108.306 26.5519 108.67 26.2707 108.949 25.9142C108.975 25.878 109.008 25.8483 109.048 25.8271C109.087 25.806 109.13 25.794 109.175 25.7921L113.099 25.7604C113.141 25.7593 113.183 25.7679 113.221 25.7855C113.26 25.8031 113.293 25.8293 113.32 25.8621C113.347 25.8949 113.365 25.9333 113.375 25.9745C113.384 26.0156 113.384 26.0584 113.374 26.0995C113.13 27.0546 112.65 27.933 111.977 28.6538C110.526 30.2586 108.216 30.9729 106.069 30.9368ZM106.412 16.416C106.076 16.4126 105.743 16.4769 105.432 16.6051C105.122 16.7332 104.84 16.9226 104.604 17.1619C103.817 17.9169 103.795 19.0471 103.827 19.68C103.829 19.7527 103.859 19.8217 103.912 19.8724C103.964 19.923 104.034 19.9513 104.107 19.9512H108.736C108.81 19.9512 108.88 19.9223 108.933 19.8707C108.985 19.8191 109.015 19.749 109.016 19.6755C109.016 19.038 108.94 17.8671 108.203 17.1619C107.973 16.9199 107.694 16.7285 107.386 16.6001C107.078 16.4716 106.746 16.4089 106.412 16.416Z" fill="#BD3400"/>
<path d="M126.797 14.0066C125.306 13.4134 124.023 12.3907 123.113 11.0681C123.074 11.01 123.017 10.9668 122.951 10.9455C122.885 10.9241 122.813 10.926 122.748 10.9507C122.683 10.9754 122.628 11.0215 122.592 11.0814C122.557 11.1413 122.543 11.2116 122.552 11.2806V12.3927H120.509C120.435 12.3927 120.363 12.3632 120.311 12.3106C120.258 12.258 120.229 12.1867 120.229 12.1124V7.42433C120.229 7.34999 120.199 7.2787 120.147 7.22614C120.094 7.17357 120.023 7.14404 119.948 7.14404H116.029C115.955 7.14404 115.883 7.17357 115.831 7.22614C115.778 7.2787 115.749 7.34999 115.749 7.42433C115.749 9.71185 115.699 25.4035 115.749 25.9958C116.128 30.286 119.411 30.9686 121.128 30.9686C121.891 30.9703 122.651 30.873 123.389 30.6793C123.448 30.6642 123.501 30.6299 123.538 30.5816C123.576 30.5333 123.597 30.4738 123.597 30.4126V27.2209C123.597 27.1829 123.589 27.1453 123.574 27.1104C123.559 27.0755 123.537 27.044 123.51 27.0177C123.482 26.9915 123.45 26.9712 123.414 26.9579C123.379 26.9447 123.341 26.9388 123.303 26.9406C123.063 26.9406 122.738 26.9406 122.571 26.9406C120.988 26.9406 120.224 26.1947 120.206 24.5943C120.206 23.5229 120.206 18.003 120.206 16.71C120.206 16.6734 120.213 16.6372 120.228 16.6035C120.242 16.5697 120.262 16.5391 120.289 16.5134C120.315 16.4878 120.346 16.4675 120.38 16.454C120.414 16.4404 120.45 16.4337 120.486 16.4343H122.543V17.2842C122.537 17.3513 122.553 17.4186 122.588 17.4761C122.623 17.5335 122.676 17.5781 122.739 17.603C122.801 17.628 122.87 17.632 122.935 17.6144C123 17.5969 123.058 17.5587 123.099 17.5057C124.019 16.2099 125.301 15.2144 126.784 14.644C126.842 14.6144 126.891 14.5694 126.926 14.514C126.961 14.4586 126.98 14.3948 126.982 14.3294C126.983 14.264 126.967 14.1994 126.934 14.1426C126.902 14.0857 126.854 14.0387 126.797 14.0066Z" fill="#BD3400"/>
<path d="M82.9884 30.7152V14.2867C82.9882 14.2428 82.9984 14.1995 83.018 14.1602C83.0376 14.1209 83.0662 14.0868 83.1014 14.0606C83.5535 13.7216 85.511 12.5145 89.2633 12.4603C90.4814 12.4383 91.6946 12.6201 92.8528 12.9982C94.0844 13.3416 95.1654 14.088 95.9227 15.1182C96.68 16.1485 97.0699 17.4029 97.03 18.6809C97.0616 21.1899 97.03 29.1284 97.03 30.7152C97.03 30.7896 97.0005 30.8609 96.9479 30.9134C96.8953 30.966 96.824 30.9955 96.7497 30.9955H92.8889C92.8146 30.9955 92.7433 30.966 92.6908 30.9134C92.6382 30.8609 92.6087 30.7896 92.6087 30.7152V19.463C92.6087 15.9955 89.0553 16.5335 89.0553 16.5335C87.8437 16.7369 87.4459 17.0896 87.4459 18.5905V30.7152C87.4459 30.7521 87.4387 30.7885 87.4246 30.8225C87.4105 30.8565 87.3898 30.8874 87.3638 30.9134C87.3378 30.9395 87.3069 30.9601 87.2729 30.9742C87.2389 30.9883 87.2024 30.9955 87.1656 30.9955H83.2642C83.1906 30.9943 83.1205 30.9643 83.0689 30.9119C83.0173 30.8594 82.9884 30.7888 82.9884 30.7152Z" fill="#BD3400"/>
</svg>