<svg xmlns:xlink="http://www.w3.org/1999/xlink" xmlns="http://www.w3.org/2000/svg" width="258" height="86" viewBox="0 0 258 86" fill="none">
<path fill-rule="evenodd" clip-rule="evenodd" d="M104.324 16.3658L100.67 6.60748C100.403 5.7404 100.046 5.13567 99.3345 4.61621H102.807C102.807 4.79199 102.721 4.96514 102.721 5.13567C102.721 5.48461 102.807 5.91618 102.987 6.43302L106.461 15.8489L109.935 6.77933C110.022 6.51959 110.022 6.34382 110.022 6.1746C110.022 5.56856 109.578 5.05041 109.133 4.61621H112.699L106.817 19.131L105.48 18.1813C105.035 17.6631 104.681 17.1436 104.324 16.3658Z" fill="black"/>
<path fill-rule="evenodd" clip-rule="evenodd" d="M114.478 6.77933C114.478 5.91618 114.299 5.31145 113.411 4.79199H117.595C116.973 5.31014 116.615 5.7404 116.615 6.86197V16.7147C116.615 17.3155 117.239 18.2692 117.952 18.441H113.231C113.765 18.2692 114.477 17.6631 114.477 16.7147L114.478 6.77933Z" fill="black"/>
<path fill-rule="evenodd" clip-rule="evenodd" d="M120.093 7.20828C120.093 6.43171 120.093 5.56725 119.292 4.96383H126.15C126.417 4.96383 126.774 4.96383 127.129 4.79199V7.38275C126.506 6.69144 125.437 6.5196 124.013 6.5196C123.477 6.5196 122.856 6.5196 122.23 6.60618V10.3211H124.281C124.991 10.3211 125.438 10.3211 125.795 10.1467V12.4777C125.438 11.9608 124.638 11.789 123.834 11.789H122.23V16.7134C123.212 16.7987 124.281 17.0558 125.26 17.0558C126.506 17.0558 127.932 16.7134 129.178 15.6745L127.931 18.4397H119.29C119.914 17.8363 120.091 17.3142 120.091 16.7134L120.093 7.20828Z" fill="black"/>
<path fill-rule="evenodd" clip-rule="evenodd" d="M132.921 6.26017H131.315C130.067 6.26017 129.088 6.60647 128.465 7.03805L129.09 4.44336C129.267 4.61389 129.803 4.61389 130.247 4.61389H138.619C139.155 4.61389 139.332 4.61389 139.78 4.44336L138.978 7.03805C138.799 6.60516 137.995 6.26017 137.105 6.26017H135.148V17.0561C135.148 17.8366 135.859 18.1803 136.304 18.44H131.939C132.563 18.1803 132.92 17.6621 132.92 17.0561L132.921 6.26017Z" fill="black"/>
<path fill-rule="evenodd" clip-rule="evenodd" d="M141.028 7.20959C141.028 5.31145 140.138 5.13568 139.691 4.79199H142.81L151.363 15.4161V7.03906C151.363 5.7404 150.918 4.96383 150.115 4.79199H154.212C153.589 5.31014 153.056 5.13568 152.879 6.86197V19.131C152.255 19.131 151.096 18.2692 150.561 17.6631L142.542 7.72905V16.3658C142.542 17.4873 142.808 18.0081 143.7 18.441H139.69C140.314 18.0081 140.848 17.8376 141.027 16.5376L141.028 7.20959Z" fill="black"/>
<path fill-rule="evenodd" clip-rule="evenodd" d="M161.877 4.79199H163.215L168.203 16.5376C168.649 17.4873 169.273 17.8376 169.896 18.441H165.354C165.977 18.1813 166.156 17.8376 166.156 17.4873C166.156 17.1437 165.977 16.8 165.887 16.5376L164.553 13.2569H161.878V11.789H163.84L161.878 6.77802L161.877 4.79199ZM160.363 6.26118C160.452 6.08802 160.452 5.82567 160.452 5.65514C160.452 5.31145 160.186 5.05172 159.829 4.7933H161.877V6.78064L159.829 11.7916H161.877V13.2582H159.292L157.958 16.8026C157.958 17.0597 157.868 17.3194 157.868 17.406C157.868 17.9255 158.226 18.0934 158.669 18.4436H154.484C155.64 17.6657 156.176 16.8026 156.264 16.1979L160.363 6.26118Z" fill="black"/>
<path fill-rule="evenodd" clip-rule="evenodd" d="M172.299 6.86066C172.299 6.51829 172.299 6.25987 172.299 6.08671C172.299 5.39672 172.122 5.31014 171.589 4.79199H175.331L179.784 14.8979L183.705 4.79199H187.534C186.911 5.05041 186.644 5.56725 186.644 6.08671C186.644 6.17329 186.734 6.34251 186.734 6.43171L188.07 16.3645C188.157 17.1423 188.604 18.18 189.407 18.4397H184.863C185.751 18.2678 185.931 17.2289 185.931 16.7134V16.3645L184.683 7.03775L179.961 18.6115C179.338 18.4397 178.625 17.486 178.181 16.5363L173.903 7.03775L172.569 16.3645C172.569 17.3155 172.747 17.8363 173.638 18.4397H169.806C170.608 18.0068 170.965 16.7987 170.965 16.3645L172.299 6.86066Z" fill="black"/>
<path fill-rule="evenodd" clip-rule="evenodd" d="M107.26 27.0781H108.597L113.678 38.7411C114.122 39.78 114.657 40.0358 115.369 40.7298H110.825C111.451 40.47 111.628 40.0358 111.628 39.78C111.628 39.4324 111.451 38.9995 111.362 38.7411L109.935 35.5443H107.26V34.0738H109.311L107.26 28.9802V27.0781ZM105.836 28.5486C105.836 28.2863 105.925 28.0265 105.925 27.9426C105.925 27.5097 105.568 27.2539 105.391 27.0781H107.26V28.9802L105.391 34.0738H107.26V35.5443H104.855L103.518 39.0848C103.43 39.2606 103.341 39.5151 103.341 39.6895C103.341 40.1237 103.786 40.3821 104.142 40.7298H100.044C101.201 39.9506 101.649 39.0861 101.827 38.4827L105.836 28.5486Z" fill="black"/>
<path fill-rule="evenodd" clip-rule="evenodd" d="M116.619 28.7198C116.619 27.8566 116.263 27.4237 115.729 26.9082H119.557C119.294 27.2545 118.934 28.0285 118.934 28.7198V36.0644C118.934 38.7417 120.807 39.433 122.141 39.433C124.46 39.433 125.885 38.3101 125.885 36.6704V29.3245C125.885 28.0271 125.44 27.4237 124.816 26.9082H128.824C128.202 27.5116 128.023 28.3761 128.023 29.3245V38.7417C128.023 39.7806 128.202 40.3827 129.004 40.7304H125.885V39.433C125.262 39.9499 124.639 41.0727 121.788 41.0727C117.779 41.0727 116.621 38.482 116.621 36.3215L116.619 28.7198Z" fill="black"/>
<path fill-rule="evenodd" clip-rule="evenodd" d="M135.149 26.7334H135.684C136.484 26.7334 138.178 26.9079 138.89 27.2542V29.4986C137.998 28.8926 136.484 28.2878 135.149 28.2878C134.256 28.2878 133.366 28.6342 132.832 29.4986C132.741 29.6731 132.565 29.9315 132.565 30.1886C132.565 31.0531 133.813 31.831 135.06 32.4344L137.376 33.5586C138.357 34.0741 140.228 35.1957 140.228 36.8393C140.228 39.5153 137.555 41.1629 134.167 41.1629C133.013 41.1629 131.766 40.9858 130.516 40.5529L129.981 37.9622C131.318 39.0851 133.013 39.6058 134.347 39.6058C135.862 39.6058 137.288 38.9998 137.555 37.9622C137.555 37.793 137.555 37.5319 137.555 37.444C137.555 36.4969 136.843 35.8056 135.328 35.0251L133.013 33.9022C131.852 33.3867 130.336 32.2651 130.16 30.7041C130.159 27.9429 132.565 26.7334 135.149 26.7334Z" fill="black"/>
<path fill-rule="evenodd" clip-rule="evenodd" d="M144.322 28.5483H142.63C141.472 28.5483 140.491 28.804 139.779 29.3222L140.491 26.7314C140.669 26.9059 141.202 26.9059 141.649 26.9059H150.022C150.557 26.9059 150.734 26.9059 151.181 26.7314L150.377 29.3222C150.2 28.804 149.396 28.5483 148.509 28.5483H146.546V39.2602C146.546 40.0341 147.168 40.3805 147.705 40.7281H143.34C143.964 40.3805 144.319 39.9489 144.319 39.2602V28.5483H144.322Z" fill="black"/>
<path fill-rule="evenodd" clip-rule="evenodd" d="M152.076 28.9789C152.076 27.2526 151.63 27.2526 151.095 26.9062H155.818C158.667 26.9062 160.807 27.8547 160.807 30.2723C160.807 32.4328 159.024 33.7314 157.509 34.0725C159.647 36.6685 161.517 39.4311 164.015 40.7271H161.697C160.807 40.7271 160.093 40.6379 159.114 39.4298L154.748 33.7301C157.243 32.8656 158.49 32.3462 158.49 30.7904V30.4454C158.49 29.1507 157.509 28.3728 155.729 28.3728C155.369 28.3728 154.925 28.4594 154.481 28.5473V38.9077C154.481 39.7774 154.748 40.3795 155.458 40.7258H151.094C151.718 40.55 152.075 39.9466 152.075 39.0821L152.076 28.9789Z" fill="black"/>
<path fill-rule="evenodd" clip-rule="evenodd" d="M169.36 27.0781H170.697L175.686 38.7411C176.131 39.78 176.756 40.0358 177.379 40.7298H172.925C173.457 40.47 173.637 40.0358 173.637 39.78C173.637 39.4324 173.457 38.9995 173.369 38.7411L172.031 35.5443H169.36V34.0738H171.321L169.36 28.9802V27.0781ZM167.847 28.5486C167.933 28.2863 167.933 28.0265 167.933 27.9426C167.933 27.5097 167.667 27.2539 167.309 27.0781H169.36V28.9802L167.309 34.0738H169.36V35.5443H166.776L165.44 39.0848C165.44 39.2606 165.352 39.5151 165.352 39.6895C165.352 40.1237 165.708 40.3821 166.154 40.7298H161.966C163.122 39.9506 163.658 39.0861 163.838 38.4827L167.847 28.5486Z" fill="black"/>
<path fill-rule="evenodd" clip-rule="evenodd" d="M178.983 28.8057C178.983 27.511 178.626 27.6815 178.093 27.0781H182.281C182.015 27.4231 181.301 27.511 181.301 28.9802V38.9103C182.457 38.9995 183.351 39.1727 184.242 39.1727C185.575 39.1727 186.825 38.8277 188.073 37.9619L186.825 40.7284H178.004C178.806 40.1224 178.984 39.4311 178.984 38.9103V38.4814L178.983 28.8057Z" fill="black"/>
<path fill-rule="evenodd" clip-rule="evenodd" d="M190.567 28.9782C190.567 28.199 190.39 27.5091 189.497 27.0762H193.685C193.062 27.5091 192.705 28.0246 192.705 29.1514V38.9084C192.705 39.6036 193.328 40.5507 194.041 40.7265H189.409C189.853 40.5507 190.566 39.9473 190.566 38.9084V28.9782H190.567Z" fill="black"/>
<path fill-rule="evenodd" clip-rule="evenodd" d="M201.704 27.0781H203.038L208.029 38.7411C208.474 39.78 209.097 40.0358 209.724 40.7298H205.266C205.802 40.47 205.979 40.0358 205.979 39.78C205.979 39.4324 205.802 38.9995 205.711 38.7411L204.379 35.5443H201.704V34.0738H203.662L201.704 28.9802V27.0781ZM200.186 28.5486C200.276 28.2863 200.276 28.0265 200.276 27.9426C200.276 27.5097 200.009 27.2539 199.651 27.0781H201.701V28.9802L199.651 34.0738H201.701V35.5443H199.115L197.781 39.0848C197.781 39.2606 197.692 39.5151 197.692 39.6895C197.692 40.1237 198.138 40.3821 198.493 40.7298H194.307C195.464 39.9506 195.998 39.0861 196.176 38.4827L200.186 28.5486Z" fill="black"/>
<path fill-rule="evenodd" clip-rule="evenodd" d="M101.916 51.2673C101.916 50.4894 101.739 49.7955 100.849 49.3652H105.035C104.414 49.7955 104.057 50.315 104.057 51.4378V61.2014C104.057 61.8914 104.68 62.8424 105.393 63.0142H100.669C101.204 62.8424 101.916 62.1511 101.916 61.2014V51.2673Z" fill="black"/>
<path fill-rule="evenodd" clip-rule="evenodd" d="M107.443 51.7855C107.443 49.7955 106.55 49.625 106.108 49.3652H109.225L117.779 59.9053V51.6123C117.779 50.315 117.334 49.4544 116.53 49.3652H120.63C120.004 49.7955 119.471 49.625 119.294 51.4378V63.619C118.67 63.619 117.511 62.8437 116.976 62.1524L108.868 52.2183V60.8564C108.868 61.9766 109.225 62.4974 110.024 63.0155H106.106C106.729 62.4974 107.262 62.3256 107.442 61.0282V51.7855H107.443Z" fill="black"/>
<path fill-rule="evenodd" clip-rule="evenodd" d="M124.187 50.7504H122.584C121.336 50.7504 120.355 51.0928 119.732 51.6122L120.356 49.0215C120.535 49.1973 121.069 49.1973 121.514 49.1973H129.889C130.425 49.1973 130.602 49.1973 131.049 49.0215L130.247 51.6122C130.067 51.0928 129.266 50.7504 128.376 50.7504H126.415V61.5463C126.415 62.3242 127.126 62.6679 127.573 63.0142H123.208C123.83 62.6679 124.187 62.151 124.187 61.5463V50.7504Z" fill="black"/>
<path fill-rule="evenodd" clip-rule="evenodd" d="M132.297 51.7851C132.297 50.922 132.297 50.1454 131.496 49.4554H138.356C138.712 49.4554 138.98 49.4554 139.336 49.3662V51.873C138.801 51.183 137.642 51.0938 136.308 51.0938C135.685 51.0938 135.061 51.0938 134.437 51.0938V54.8088H136.485C137.198 54.8088 137.642 54.8088 137.999 54.7261V56.9693C137.642 56.4498 136.844 56.2793 136.04 56.2793H134.437V61.2023C135.418 61.3742 136.485 61.5473 137.465 61.5473C138.801 61.5473 140.139 61.2023 141.385 60.2526L140.138 63.0152H131.495C132.119 62.3252 132.296 61.8923 132.296 61.2023L132.297 51.7851Z" fill="black"/>
<path fill-rule="evenodd" clip-rule="evenodd" d="M143.345 51.2672C143.345 49.4557 142.9 49.4557 142.365 49.1973H147.086C149.936 49.1973 152.075 50.1457 152.075 52.5633C152.075 54.7251 150.295 56.0172 148.777 56.2795C150.917 58.9582 152.788 61.7234 155.283 63.0155H152.965C152.075 63.0155 151.362 62.8436 150.381 61.7234L146.017 56.0172C148.513 55.0688 149.759 54.5532 149.759 53.0801V52.7391C149.759 51.4391 148.777 50.6638 146.997 50.6638C146.641 50.6638 146.196 50.6638 145.749 50.7504V61.2013C145.749 61.9753 146.017 62.6679 146.73 63.0142H142.365C142.988 62.8423 143.345 62.151 143.345 61.3731V51.2672Z" fill="black"/>
<path fill-rule="evenodd" clip-rule="evenodd" d="M155.017 51.7855C155.017 49.7955 154.213 49.625 153.68 49.3652H156.885L165.44 59.9053V51.6123C165.44 50.315 164.995 49.4544 164.104 49.3652H168.292C167.668 49.7955 167.135 49.625 166.955 51.4378V63.619C166.332 63.619 165.175 62.8437 164.641 62.1524L156.531 52.2183V60.8564C156.531 61.9766 156.885 62.4974 157.689 63.0155H153.68C154.393 62.4974 154.927 62.3256 155.017 61.0282V51.7855Z" fill="black"/>
<path fill-rule="evenodd" clip-rule="evenodd" d="M175.865 49.3652H177.203L182.282 61.0282C182.728 62.0658 183.263 62.3256 183.975 63.0156H179.431C180.055 62.6692 180.232 62.3256 180.232 61.9766C180.232 61.6343 180.055 61.2919 179.966 61.0282L178.541 57.7501H175.867V56.2783H177.916L175.867 51.266V49.3652H175.865ZM174.441 50.7505C174.441 50.576 174.529 50.315 174.529 50.2284C174.529 49.7955 174.261 49.5397 173.904 49.3652H175.865L175.864 51.2673L173.904 56.2796H175.864V57.7514H173.371L172.033 61.3758C171.945 61.549 171.857 61.8087 171.857 61.894C171.857 62.4134 172.301 62.5827 172.658 63.0169H168.56C169.719 62.1537 170.165 61.3758 170.343 60.6858L174.441 50.7505Z" fill="black"/>
<path fill-rule="evenodd" clip-rule="evenodd" d="M187.178 50.7504H185.485C184.327 50.7504 183.348 51.0928 182.635 51.6122L183.348 49.0215C183.525 49.1973 183.971 49.1973 184.503 49.1973H192.878C193.325 49.1973 193.505 49.1973 194.038 49.0215L193.234 51.6122C193.057 51.0928 192.167 50.7504 191.365 50.7504H189.406V61.5463C189.406 62.3242 190.027 62.6679 190.562 63.0142H186.194C186.82 62.6679 187.176 62.151 187.176 61.5463L187.178 50.7504Z" fill="black"/>
<path fill-rule="evenodd" clip-rule="evenodd" d="M195.285 51.2673C195.285 50.4894 195.106 49.7955 194.216 49.3652H198.403C197.779 49.7955 197.422 50.315 197.422 51.4378V61.2014C197.422 61.8914 198.135 62.8424 198.759 63.0142H194.127C194.57 62.8424 195.283 62.1511 195.283 61.2014L195.285 51.2673Z" fill="black"/>
<path fill-rule="evenodd" clip-rule="evenodd" d="M207.315 49.1973C211.68 49.1973 215.066 51.7854 215.154 56.1903C215.244 59.2166 212.748 63.4484 207.581 63.4484C207.492 63.4484 207.403 63.4484 207.315 63.4484V61.8926C207.403 61.8926 207.493 61.8926 207.581 61.8926C210.698 61.8926 212.662 59.3897 212.662 56.7085V56.2795C212.662 53.6022 210.522 50.7517 207.315 50.6638V49.1973ZM207.225 49.1973H207.315V50.6638C207.225 50.6638 207.137 50.6638 207.137 50.6638C204.64 50.6638 201.97 52.4767 201.97 56.0172C201.97 56.1077 202.056 56.2795 202.056 56.2795C202.056 59.475 204.554 61.7234 207.315 61.8926V63.4484C202.324 63.3644 199.563 60.3382 199.386 56.4514C199.209 53.6022 201.346 49.1973 207.225 49.1973Z" fill="black"/>
<path fill-rule="evenodd" clip-rule="evenodd" d="M217.558 51.7855C217.558 49.7955 216.668 49.625 216.223 49.3652H219.341L227.894 59.9053V51.6123C227.894 50.315 227.447 49.4544 226.646 49.3652H230.744C230.12 49.7955 229.586 49.625 229.407 51.4378V63.619C228.784 63.619 227.627 62.8437 227.091 62.1524L218.983 52.2183V60.8564C218.983 61.9766 219.34 62.4974 220.143 63.0155H216.221C216.846 62.4974 217.379 62.3256 217.557 61.0282V51.7855H217.558Z" fill="black"/>
<path fill-rule="evenodd" clip-rule="evenodd" d="M238.317 49.3652H239.741L244.732 61.0282C245.176 62.0658 245.713 62.3256 246.426 63.0156H241.882C242.505 62.6692 242.683 62.3256 242.683 61.9766C242.683 61.6343 242.505 61.2919 242.416 61.0282L241.079 57.7501H238.318V56.2783H240.369L238.318 51.266V49.3652H238.317ZM236.89 50.7505C236.979 50.576 236.979 50.315 236.979 50.2284C236.979 49.7955 236.713 49.5397 236.357 49.3652H238.317L238.316 51.2673L236.357 56.2796H238.316V57.7514H235.821L234.483 61.3758C234.483 61.549 234.396 61.8087 234.396 61.894C234.396 62.4134 234.754 62.5827 235.197 63.0169H231.009C232.168 62.1537 232.613 61.3758 232.792 60.6858L236.89 50.7505Z" fill="black"/>
<path fill-rule="evenodd" clip-rule="evenodd" d="M248.029 51.0928C248.029 49.7955 247.674 49.9726 247.138 49.3652H251.326C250.969 49.625 250.345 49.7955 250.345 51.2673V61.2027C251.416 61.2919 252.396 61.4624 253.286 61.4624C254.623 61.4624 255.868 61.1174 257.116 60.253L255.868 63.0156H246.961C247.851 62.4121 248.029 61.7235 248.029 61.2027V60.6845V51.0928Z" fill="black"/>
<path fill-rule="evenodd" clip-rule="evenodd" d="M105.483 71.2246H106.019C106.821 71.2246 108.513 71.3991 109.137 71.7401V73.9885C108.335 73.3851 106.821 72.7791 105.484 72.7791C104.594 72.7791 103.704 73.128 103.168 73.9885C103.168 74.2482 102.99 74.4188 102.99 74.6824C102.99 75.5417 104.237 76.3208 105.396 76.9256L107.623 78.135C108.692 78.5666 110.475 79.6921 110.475 81.3279C110.475 84.097 107.8 85.7354 104.593 85.7354C103.435 85.7354 102.098 85.4783 100.851 85.0428L100.405 82.5413C101.741 83.5776 103.346 84.181 104.77 84.181C106.196 84.181 107.622 83.491 107.8 82.5413C107.887 82.2802 107.887 82.1084 107.887 81.9392C107.887 81.0747 107.177 80.2916 105.663 79.5203L103.346 78.3948C102.277 77.8779 100.671 76.7537 100.583 75.198C100.583 72.4328 102.988 71.2246 105.483 71.2246Z" fill="black"/>
<path fill-rule="evenodd" clip-rule="evenodd" d="M118.844 71.2246C120 71.2246 121.515 71.3991 122.855 71.7401V74.1604C121.158 73.2106 119.734 73.0375 118.666 73.0375C115.545 73.0375 113.945 75.4564 113.945 77.8779C113.945 80.6405 115.902 83.6642 119.378 83.6642C119.555 83.6642 119.735 83.5776 119.824 83.5776C121.515 83.5776 122.587 83.146 123.922 82.5413L123.032 84.9589C121.962 85.3052 120.714 85.4783 119.555 85.4783C115.637 85.4783 111.629 83.4057 111.452 78.9129C111.36 75.3672 112.961 71.2246 118.844 71.2246Z" fill="black"/>
<path fill-rule="evenodd" clip-rule="evenodd" d="M125.618 74.1595C125.618 73.3855 125.618 72.3479 124.815 71.7393H128.823C128.113 72.0882 127.753 72.8648 127.753 73.9876V77.1005H135.505V73.8171C135.505 73.0366 135.238 72.0882 134.348 71.7393H138.713C138.358 72.2574 137.734 72.3466 137.734 73.8171V83.3183C137.734 84.268 137.913 84.7848 138.713 85.2177H134.528C135.418 84.958 135.506 84.0975 135.506 83.4888V78.7376H127.754V83.317C127.754 84.0962 128.114 84.7835 128.824 85.2164H124.639C125.262 84.9567 125.619 84.0962 125.619 83.317L125.618 74.1595Z" fill="black"/>
<path fill-rule="evenodd" clip-rule="evenodd" d="M147.533 71.3975C151.9 71.4801 155.283 73.9869 155.371 78.3931C155.461 81.5034 152.967 85.7351 147.798 85.7351C147.712 85.7351 147.621 85.7351 147.533 85.7351V84.0981C147.621 84.0981 147.712 84.0981 147.798 84.0981C150.919 84.0981 152.879 81.5913 152.879 78.9139V78.5676C152.879 75.8877 150.739 73.0372 147.533 72.8666V71.3975ZM147.444 71.3975H147.533V72.864C147.444 72.864 147.354 72.864 147.354 72.864C144.86 72.864 142.189 74.7635 142.189 78.2213C142.189 78.3079 142.276 78.4797 142.276 78.565C142.276 81.7618 144.771 84.0089 147.533 84.0954V85.7325C142.544 85.6433 139.783 82.6249 139.603 78.7368C139.424 75.8037 141.564 71.3975 147.444 71.3975Z" fill="black"/>
<path fill-rule="evenodd" clip-rule="evenodd" d="M164.192 71.3975C168.557 71.4801 171.942 73.9869 172.03 78.3931C172.12 81.5034 169.626 85.7351 164.459 85.7351C164.37 85.7351 164.281 85.7351 164.192 85.7351V84.0981C164.281 84.0981 164.37 84.0981 164.459 84.0981C167.575 84.0981 169.447 81.5913 169.447 78.9139V78.5676C169.447 75.8877 167.399 73.0372 164.192 72.8666V71.3975ZM164.102 71.3975H164.192V72.864C164.102 72.864 164.014 72.864 163.925 72.864C161.518 72.864 158.845 74.7635 158.845 78.2213C158.845 78.3079 158.935 78.4797 158.935 78.565C158.935 81.7618 161.43 84.0089 164.192 84.0954V85.7325C159.113 85.6433 156.44 82.6249 156.263 78.7368C156.084 75.8037 158.223 71.3975 164.102 71.3975Z" fill="black"/>
<path fill-rule="evenodd" clip-rule="evenodd" d="M174.259 73.3852C174.259 72.0878 173.901 72.257 173.456 71.5684H177.555C177.288 71.9147 176.575 72.0878 176.575 73.5557V83.4898C177.731 83.5763 178.712 83.7508 179.516 83.7508C180.852 83.7508 182.1 83.4058 183.347 82.5414L182.1 85.2187H173.278C174.168 84.6153 174.259 84.0105 174.259 83.4898V82.9716V73.3852Z" fill="black"/>
<path fill-rule="evenodd" clip-rule="evenodd" d="M42.4957 7.20773C42.2292 7.29169 41.9599 7.38089 41.0684 7.7272C40.089 8.16008 38.2207 9.02454 37.3265 9.10981C37.1493 9.19376 36.7029 9.19376 35.2784 9.36823H35.0984L34.7413 10.0582L33.7605 12.9979L35.1877 13.1671C35.3649 13.1671 36.7015 13.2537 37.5024 13.1671C38.4845 12.9979 39.5533 12.649 40.5327 12.3906C41.6028 12.1295 43.0273 11.6992 43.4738 11.7871C44.096 11.8737 44.3639 12.2161 44.3639 12.2161L44.8983 12.9087L45.2554 13.3429L46.1456 12.304C46.3255 12.1295 46.8585 11.7871 47.3049 11.7871C47.8393 11.7871 48.9094 12.0429 49.8888 12.3906C50.9562 12.649 52.0263 12.9087 53.1843 13.1671C53.9879 13.2537 55.2352 13.1671 55.5017 13.1671L57.0155 12.9979L55.6803 9.36823L53.3642 9.10981C52.562 9.02454 50.6018 8.15877 49.6223 7.7272C48.8201 7.38089 48.4643 7.29169 48.2844 7.20773C47.1277 6.95194 46.1469 7.0372 45.3447 7.38089C44.5438 7.0372 43.6537 6.95063 42.4957 7.20773Z" fill="#881D1E"/>
<path fill-rule="evenodd" clip-rule="evenodd" d="M74.4824 13.6875H15.77V14.1204C15.682 15.503 14.7892 48.502 15.057 51.7854C16.3936 65.0067 29.4023 73.9884 37.9549 79.8612C41.3396 82.2802 44.0141 84.097 44.8164 85.4783L44.9043 85.6462H45.7079L45.8851 85.4783C46.598 84.097 49.2699 82.2802 52.6573 79.8612C61.3005 73.9871 74.2186 65.0054 75.5538 51.7854C75.8217 48.502 74.9315 15.5017 74.9315 14.1204V13.6875H74.4824Z" fill="#881D1E"/>
<path fill-rule="evenodd" clip-rule="evenodd" d="M74.4824 14.1182H16.1245C16.1245 14.1182 15.2343 48.4998 15.5022 51.7831C17.3731 70.0968 42.4977 80.4651 45.1695 85.2163H45.4387C48.1998 80.4651 73.3244 70.0968 75.1061 51.7831C75.4619 48.5011 74.4824 14.1182 74.4824 14.1182Z" fill="#F0CF1B"/>
<path fill-rule="evenodd" clip-rule="evenodd" d="M73.4135 14.8965H16.9278V15.1588C16.6613 26.3889 16.2175 41.9374 16.2175 48.5881C16.2175 50.2291 16.3055 51.268 16.3055 51.6996C17.5528 64.3123 30.2923 73.1261 38.6676 78.9137C41.4287 80.8118 43.8354 82.542 45.0827 83.9246L45.3478 84.0978L45.5264 83.9246C46.863 82.542 49.179 80.8118 51.9415 78.9137C60.4047 73.1274 73.0563 64.3136 74.305 51.6996C74.3915 51.2667 74.3915 50.2278 74.3915 48.5881C74.3915 41.9374 74.0358 26.3889 73.6786 15.1588V14.8965H73.4135Z" fill="#881D1E"/>
<path fill-rule="evenodd" clip-rule="evenodd" d="M17.1931 15.1572C16.9239 25.0913 16.5708 41.5895 16.5708 48.5865C16.5708 50.1449 16.5708 51.1812 16.5708 51.698C17.8181 64.1362 30.4683 72.9527 38.8436 78.7376C41.7833 80.7236 44.0101 82.2794 45.3467 83.662C46.5953 82.2781 48.9127 80.7223 51.8524 78.7376C60.137 72.9527 72.7886 64.1376 74.0359 51.698C74.0359 51.1798 74.1252 50.1435 74.1252 48.5865C74.1252 41.5908 73.6788 25.0913 73.4123 15.1572C71.4507 15.1572 19.2426 15.1572 17.1931 15.1572Z" fill="white"/>
<path fill-rule="evenodd" clip-rule="evenodd" d="M71.9025 16.1943H18.2672V16.6233C18.0007 27.4231 17.6436 42.2829 17.6436 48.6739L17.7328 51.5283C18.8909 63.6189 31.2746 72.1743 39.4713 77.8779C42.0539 79.6921 43.7476 80.8123 44.9949 81.9391L45.3507 82.1962L45.6185 81.9391C46.8658 80.8123 48.5582 79.6921 51.1435 77.8779C59.3402 72.1743 71.7226 63.6189 72.9712 51.5283V48.6739C72.9712 42.2829 72.702 27.4244 72.3476 16.6233V16.1943H71.9025Z" fill="url(#paint0_linear_129_3459)"/>
<path fill-rule="evenodd" clip-rule="evenodd" d="M44.7265 43.6649L45.2595 42.6299L45.9725 43.6649L47.1305 43.4038L46.6868 44.528L47.6648 45.3059L46.5068 45.6548V46.9482L45.4395 46.2569L44.4587 46.9482L44.3694 45.7375L43.1221 45.4817L44.0122 44.6159L43.4792 43.5809L44.7265 43.6649Z" fill="white"/>
<path fill-rule="evenodd" clip-rule="evenodd" d="M36.5293 55.4999C36.5293 55.2388 36.7066 54.7246 36.7972 54.2904L37.9552 51.2655L36.1749 45.9082L34.9276 49.1955V53.1689L36.1749 50.0587C36.2642 50.401 36.3521 50.8313 36.4414 51.0071C36.1749 51.6971 35.3713 53.7697 35.3713 53.7697L35.2847 53.9402L35.1955 54.3757C35.1062 54.8046 34.9289 55.1549 34.9289 55.4973C34.9289 55.7557 35.0155 55.9302 35.1062 56.1859H34.9289V57.6538H38.1338C37.3302 56.8851 36.5293 56.4496 36.5293 55.4999ZM34.9249 49.1968L33.3204 52.9931C32.9633 54.2917 31.9839 56.0167 29.4893 57.6578H34.9249V56.1899H33.3204C34.1213 55.1575 34.5677 54.2039 34.745 53.4286L34.9249 53.1702V49.1968Z" fill="white"/>
<path fill-rule="evenodd" clip-rule="evenodd" d="M52.1185 57.6576H61.4746C60.138 56.3641 58.8907 55.6715 58.0006 53.6016L51.5855 38.6565V42.542L56.5761 54.2037C56.9305 54.9815 57.3769 55.6715 57.822 56.1897C56.5761 56.1897 56.3961 56.1897 55.2395 56.1897C55.2395 56.0165 55.3274 55.846 55.3274 55.6715C55.3274 54.8936 54.973 54.1171 54.793 53.6855L54.6172 53.2539V53.0782L51.5869 45.824V49.7935L53.1913 53.6002C53.3699 54.1171 53.815 54.8923 53.815 55.6702C53.8122 56.3628 53.4578 57.0554 52.1185 57.6576ZM51.5855 38.6565L47.5771 29.3232H43.033V33.2979L43.1223 32.8677C43.3008 32.4335 43.4794 31.6569 43.4794 31.2266C43.4794 31.0522 43.4794 30.9643 43.3901 30.8764C43.7459 30.8764 43.7459 30.8764 44.1017 30.8764L43.033 33.8161V38.1371L44.816 33.3871L51.5855 49.7961V45.8267L45.349 30.8777C45.8847 30.8777 46.2405 30.8777 46.5977 30.8777L51.5869 42.5433L51.5855 38.6565ZM43.033 29.3232H40.629C41.3392 29.7574 41.9629 30.3582 41.9629 31.2266C41.9629 31.4798 41.875 32.0019 41.6977 32.3482L40.2705 36.0631L41.8763 41.246L43.033 38.1371V33.8161L42.0535 36.496C41.9642 36.4042 41.8763 36.1497 41.8763 36.0618C42.1428 35.5424 42.6785 33.9853 43.0343 33.2966L43.033 29.3232Z" fill="white"/>
<path fill-rule="evenodd" clip-rule="evenodd" d="M48.7337 61.1996C48.7337 60.9412 48.823 60.4244 49.0002 59.9915L51.0511 51.5253L48.8243 46.6009L48.2007 49.2756V56.0142L48.2873 55.4121C48.2873 55.4121 48.823 53.3369 49.268 51.179C49.3573 51.3508 49.448 51.5253 49.448 51.6093L48.2007 56.8826V63.0125H50.0716C49.3573 62.5796 48.7337 61.9749 48.7337 61.1996ZM48.2007 49.2769L46.7762 55.0684L45.8833 58.9578L38.5781 34.9406V40.2113L45.0838 61.5473C44.7266 61.5473 44.4601 61.5473 44.1909 61.5473L38.5794 44.3552V49.2782L43.1235 63.0151H48.202V56.8852L47.4891 59.6478C47.4891 59.5626 47.4891 59.5626 47.4891 59.5626V59.6478C47.3119 60.0781 47.2226 60.6841 47.2226 61.201C47.2226 61.2902 47.2226 61.3728 47.2226 61.546C47.044 61.546 47.044 61.546 46.8654 61.546C47.044 60.6828 47.8462 57.3115 48.202 56.0155L48.2007 49.2769ZM38.5781 34.9406L36.7977 28.8893C36.6192 28.3725 36.1741 27.5959 36.1741 26.8194C36.1741 26.1241 36.5299 25.4354 37.7785 24.832H28.5117C29.8456 26.1241 31.0956 26.7302 31.8965 28.8893L38.5781 49.2769V44.3538L33.4103 28.3738L33.3223 28.2859C32.9652 27.4215 32.6094 26.8194 32.1643 26.2986C33.4103 26.2986 33.5902 26.2986 34.6603 26.2986C34.6603 26.4731 34.6603 26.6449 34.6603 26.8194C34.6603 27.5959 34.9268 28.2859 35.104 28.8041L35.2839 29.2383L38.5781 40.2113V34.9406Z" fill="#F0CF1B"/>
<path fill-rule="evenodd" clip-rule="evenodd" d="M54.8791 36.5796L56.6608 29.4987C56.9273 28.2013 57.9974 26.475 60.4027 24.8353H54.8805V26.3019H56.5742C55.7706 27.4247 55.3242 28.3771 55.147 29.1537L54.8805 30.2739L54.8791 36.5796ZM54.8791 27.6818V26.3005C54.8791 26.559 54.9698 26.7334 54.9698 26.9932C54.9698 27.2542 54.9698 27.4234 54.8791 27.6818ZM51.7622 24.834C52.5631 25.6079 53.4546 26.0395 53.4546 26.9932C53.4546 27.2542 53.276 27.7724 53.1868 28.2013L51.4944 35.2823L53.8104 40.814L54.8791 36.5796L54.8805 30.2739L53.4546 35.9762C53.3653 35.7165 53.1868 35.2823 53.0961 35.1957C53.4546 33.6425 54.6126 28.5502 54.6126 28.5502L54.7885 28.116C54.7885 27.9429 54.8791 27.8563 54.8791 27.6818V26.3005V24.834H51.7622Z" fill="#F0CF1B"/>
<path fill-rule="evenodd" clip-rule="evenodd" d="M54.5256 42.1953C54.5256 42.1953 57.7332 30.2726 57.9997 29.6718C59.2456 27.0771 61.4737 26.5576 61.4737 26.5576L54.5256 42.1953Z" fill="#F0CF1B"/>
<path fill-rule="evenodd" clip-rule="evenodd" d="M55.4141 42.1956C55.4141 42.1956 60.6698 31.3958 61.1162 30.7924C63.1671 28.3748 65.1246 28.805 65.1246 28.805L55.4141 42.1956Z" fill="#F0CF1B"/>
<path fill-rule="evenodd" clip-rule="evenodd" d="M54.9709 43.4033C54.9709 43.4033 58.5329 52.044 59.2459 53.3387C60.6704 56.3636 63.3449 55.7589 63.3449 55.7589L54.9709 43.4033Z" fill="#F0CF1B"/>
<path fill-rule="evenodd" clip-rule="evenodd" d="M55.6838 43.1455C55.6838 43.1455 61.0302 50.3144 62.0123 51.4372C64.2377 53.9427 66.3765 52.5627 66.3765 52.5627L55.6838 43.1455Z" fill="#F9EC34"/>
<path fill-rule="evenodd" clip-rule="evenodd" d="M35.1025 42.8002C35.1025 42.8002 31.5378 31.2251 31.1847 30.619C29.8454 28.0257 27.5308 27.6807 27.5308 27.6807L35.1025 42.8002Z" fill="#F0CF1B"/>
<path fill-rule="evenodd" clip-rule="evenodd" d="M34.4738 42.7994C34.4738 42.7994 28.5931 32.4324 28.148 31.9143C25.9212 29.4967 24.0503 30.1027 24.0503 30.1027L34.4738 42.7994Z" fill="#F0CF1B"/>
<path fill-rule="evenodd" clip-rule="evenodd" d="M35.726 44.3535C35.726 44.3535 32.1626 52.821 31.5376 54.2036C30.1131 57.142 27.4426 56.5373 27.4426 56.5373L35.726 44.3535Z" fill="#F0CF1B"/>
<path fill-rule="evenodd" clip-rule="evenodd" d="M35.0106 44.2666C29.4884 51.7844 29.8429 51.5273 28.8648 52.738C26.7273 55.3301 24.5872 54.0341 24.5872 54.0341L35.0106 44.2666Z" fill="#F0CF1B"/>
<path fill-rule="evenodd" clip-rule="evenodd" d="M55.5964 68.4588C50.9616 68.8903 44.6358 69.4951 29.8454 68.2869C26.8178 68.0233 22.363 69.7548 20.8491 70.6193L20.3134 70.8777C20.3134 70.8777 21.0291 73.3845 21.2969 74.0758C20.8505 74.1597 20.3134 74.3303 20.3134 74.3303L13.0961 75.7142L12.5618 75.8021L14.6126 82.8817C14.6126 82.8817 22.275 80.552 22.4522 80.4654C25.0361 80.7225 26.3727 79.3439 26.7299 78.9976C26.9071 78.6499 26.9964 78.4781 27.0857 78.3915C27.2642 78.221 27.2642 78.0465 27.2642 77.3552C27.2642 77.0063 27.2642 76.3176 27.2642 75.4531C27.8879 75.3653 28.5995 75.3653 29.3137 75.3653C48.8255 77.0076 56.3986 75.9765 60.1391 75.4531C61.2092 75.3653 61.9194 75.2813 62.4565 75.2813C62.4565 75.2813 63.1694 75.3653 63.7038 75.4531C63.7038 75.8847 63.7038 76.3176 63.7038 76.6665C63.7038 78.0465 63.7931 78.3076 63.7931 78.3915L64.1502 78.9976C64.5047 79.3426 65.8413 80.7212 68.5144 80.4654C68.6024 80.5507 76.2648 82.8817 76.2648 82.8817L78.3156 75.8021L70.564 74.3276C70.564 74.3276 70.0296 74.1571 69.6738 74.0732C69.8537 73.3832 70.564 70.875 70.564 70.875L70.0296 70.6166C68.3359 69.6669 65.4855 68.5453 63.6145 68.3696C60.6721 67.9406 58.5347 68.199 55.5964 68.4588Z" fill="#881D1E"/>
<path fill-rule="evenodd" clip-rule="evenodd" d="M55.5961 68.5478C50.9614 68.9755 44.6356 69.5802 29.8452 68.372C26.8176 68.0231 22.452 69.8399 20.9382 70.7031L20.4038 70.9667C20.4038 70.9667 21.2047 73.5549 21.3833 74.0756C20.9382 74.1596 20.3118 74.3301 20.3118 74.3301L13.0959 75.8032H12.7415L14.6124 82.8015C14.6124 82.8015 22.2748 80.4666 22.452 80.3826C25.0359 80.6397 26.3725 79.3437 26.6403 78.9121C26.8176 78.8282 26.9068 78.7377 26.9068 78.5658C26.9961 78.5658 27.1734 78.2221 27.1734 77.3577C27.1734 76.9248 27.1734 76.2361 27.1734 75.3664C27.8876 75.2825 28.5992 75.2825 29.3135 75.3664C48.8253 77.0088 56.3983 75.8859 60.1389 75.4543C61.209 75.2825 61.9192 75.1959 62.4563 75.1959C62.4563 75.1959 63.2585 75.3651 63.7929 75.3651C63.7036 76.2348 63.7036 76.9235 63.7036 77.3564C63.7036 78.2208 63.9701 78.4792 63.9701 78.5645C64.0594 78.6511 64.15 78.8269 64.2366 78.9108C64.5937 79.3424 65.841 80.6384 68.5142 80.3813C68.6021 80.4653 76.2645 82.8002 76.2645 82.8002L78.2248 75.8019L70.5624 74.3275C70.5624 74.3275 69.9387 74.157 69.5816 74.073C69.6709 73.5535 70.4745 70.9641 70.4745 70.9641L70.028 70.7004C68.3343 69.752 65.396 68.6278 63.6129 68.3694C60.6719 68.0231 58.5345 68.1989 55.5961 68.5478Z" fill="#881D1E"/>
<path fill-rule="evenodd" clip-rule="evenodd" d="M70.4742 74.6798L69.1363 74.3269L70.0278 71.1328L69.8505 70.9635C68.1568 70.0951 65.3051 68.9736 63.6127 68.7152C60.6717 68.3702 58.5342 68.6286 55.6838 68.8883C51.0517 69.3199 44.6367 69.9259 29.7583 68.7152C26.8173 68.4567 22.5424 70.183 21.1152 70.9635L20.8487 71.1328L21.8295 74.3269L20.4049 74.6798L13.1863 76.1437L14.88 82.3642L22.3625 80.0331C24.8571 80.2876 26.1071 79.0808 26.3736 78.7358C26.5508 78.4774 26.7307 78.219 26.7307 78.219C26.8173 77.9592 26.8173 77.874 26.8173 75.1101L26.7307 75.0209C27.5316 74.929 28.3325 74.849 29.4025 74.929C48.825 76.6645 56.3981 75.5377 60.0507 75.1101C61.2087 74.929 61.9203 74.849 62.456 74.849C63.0783 74.929 63.6127 75.0209 64.1497 75.1101C64.0605 77.8727 64.2363 78.219 64.2363 78.219C64.2363 78.3055 64.4163 78.4774 64.5028 78.7358C64.86 79.0808 66.0194 80.2876 68.514 80.0331L75.9964 82.3642L77.7794 76.1437L70.4742 74.6798Z" fill="#F0CF1B"/>
<path fill-rule="evenodd" clip-rule="evenodd" d="M22.989 76.7517C23.0769 76.9248 26.2845 76.4054 26.4631 77.9625C26.551 78.2222 26.3738 75.1133 26.3738 75.1133C23.5247 75.6288 22.989 76.7517 22.989 76.7517Z" fill="url(#paint1_linear_129_3459)"/>
<path fill-rule="evenodd" clip-rule="evenodd" d="M22.7184 77.2691L21.9175 74.6797L20.8474 74.9302C20.8474 74.9302 22.2746 79.6894 22.4519 79.6894C25.213 79.9491 26.3723 78.2202 26.283 78.1323C25.7487 76.667 22.7184 77.2691 22.7184 77.2691Z" fill="url(#paint2_linear_129_3459)"/>
<path fill-rule="evenodd" clip-rule="evenodd" d="M20.1348 75.8038L20.4027 75.7158C20.4893 75.7158 20.5799 75.6291 20.5799 75.5411L20.4906 75.197C20.4906 75.1143 20.404 75.1143 20.3107 75.1143L19.9562 75.197C19.867 75.197 19.779 75.2824 19.867 75.3664V75.7158C19.9562 75.8038 20.0455 75.8038 20.1348 75.8038Z" fill="#881D1E"/>
<path fill-rule="evenodd" clip-rule="evenodd" d="M19.4232 75.2822L13.809 76.4909C13.7197 76.4909 13.6318 76.5801 13.7197 76.6681V76.9253C13.809 77.0093 13.809 77.0093 13.8997 77.0093L19.6018 75.8859L19.4232 75.2822Z" fill="#881D1E"/>
<path fill-rule="evenodd" clip-rule="evenodd" d="M20.2231 76.1455C20.1352 76.2361 20.0459 76.3201 20.1352 76.4054L20.2231 76.6678C20.2231 76.7518 20.3097 76.8371 20.403 76.8371L20.7575 76.7518C20.8467 76.7518 20.8467 76.6678 20.8467 76.5799L20.7575 76.2361C20.7575 76.1455 20.6709 76.0615 20.5802 76.0615L20.2231 76.1455Z" fill="#881D1E"/>
<path fill-rule="evenodd" clip-rule="evenodd" d="M19.6894 76.3184L14.1645 77.7895C14.0766 77.7895 13.9873 77.8761 13.9873 77.9627L14.0752 78.2226C14.1632 78.3092 14.1632 78.3092 14.2538 78.3092L19.8653 76.9247L19.6894 76.3184Z" fill="#881D1E"/>
<path fill-rule="evenodd" clip-rule="evenodd" d="M20.4887 77.1846C20.4021 77.1846 20.3088 77.2699 20.4021 77.3566L20.4887 77.7017C20.4887 77.7883 20.578 77.7883 20.6686 77.7883L21.0258 77.7017C21.1123 77.6151 21.1123 77.5298 21.1123 77.5298L21.0258 77.1846C21.0258 77.1007 20.9365 77.0088 20.8458 77.0088L20.4887 77.1846Z" fill="#881D1E"/>
<path fill-rule="evenodd" clip-rule="evenodd" d="M19.9545 77.3564L14.431 78.9129C14.343 78.9129 14.343 78.9995 14.343 79.0835L14.431 79.346C14.431 79.4339 14.5202 79.5205 14.6109 79.4339L20.1344 77.8774L19.9545 77.3564Z" fill="#881D1E"/>
<path fill-rule="evenodd" clip-rule="evenodd" d="M21.4726 78.4794L21.3847 78.2206C21.2967 78.1326 21.2061 78.0459 21.1168 78.1326L20.8503 78.2206C20.761 78.2206 20.6731 78.3073 20.6731 78.3913L20.8503 78.7368C20.8503 78.8275 20.9396 78.8275 21.0302 78.8275L21.386 78.7368C21.4726 78.6528 21.4726 78.5661 21.4726 78.4794Z" fill="#881D1E"/>
<path fill-rule="evenodd" clip-rule="evenodd" d="M20.3113 78.3916L14.7891 80.0347C14.7012 80.12 14.7012 80.12 14.7012 80.2053L14.7891 80.4664C14.7891 80.5517 14.8784 80.6397 14.9663 80.5517L20.4912 78.9113L20.3113 78.3916Z" fill="#881D1E"/>
<path fill-rule="evenodd" clip-rule="evenodd" d="M21.4708 79.082L21.2043 79.17C21.115 79.2554 21.0271 79.3448 21.0271 79.4315L21.2043 79.6916C21.2043 79.7743 21.2936 79.861 21.3829 79.7743L21.7387 79.6916C21.828 79.6916 21.828 79.6035 21.828 79.5195L21.7387 79.17C21.6508 79.082 21.5615 79.082 21.4708 79.082Z" fill="#881D1E"/>
<path fill-rule="evenodd" clip-rule="evenodd" d="M15.2355 81.1561C15.1462 81.1561 15.0556 81.2427 15.1462 81.3267L15.2355 81.5905C15.2355 81.6758 15.3248 81.7624 15.4127 81.6758L20.8484 79.9513L20.6711 79.4316L15.2355 81.1561Z" fill="#881D1E"/>
<path fill-rule="evenodd" clip-rule="evenodd" d="M68.0635 76.4052L69.6679 71.3077C68.0635 70.3593 65.2131 69.3216 63.5193 69.0632C55.9462 68.2001 53.8088 71.0492 29.7543 69.0632C26.9932 68.8048 22.8955 70.3593 21.291 71.3077L22.8048 76.4052C22.8048 76.4052 24.5851 74.2474 29.3971 74.5937C54.9681 76.7528 60.0453 74.2474 62.5399 74.5071C67.2612 74.9321 68.0635 76.4052 68.0635 76.4052Z" fill="url(#paint3_linear_129_3459)"/>
<path fill-rule="evenodd" clip-rule="evenodd" d="M67.8918 76.7517C67.8918 76.7517 67.4453 75.6288 64.5043 75.1133C64.5043 75.1133 64.4177 78.2222 64.4177 77.9625C64.6829 76.4054 67.8918 76.9248 67.8918 76.7517Z" fill="url(#paint4_linear_129_3459)"/>
<path fill-rule="evenodd" clip-rule="evenodd" d="M68.9571 74.6797L68.1562 77.2691C68.1562 77.2691 65.1259 76.667 64.5916 78.1336C64.5916 78.2215 65.6616 79.9504 68.512 79.6907C68.6 79.6907 70.0258 74.9315 70.0258 74.9315L68.9571 74.6797Z" fill="url(#paint5_linear_129_3459)"/>
<path fill-rule="evenodd" clip-rule="evenodd" d="M70.4745 75.7148L70.8303 75.8028C70.9182 75.8028 71.0089 75.8028 71.0089 75.7148L71.0981 75.3655C71.0981 75.2814 71.0089 75.196 70.9182 75.196L70.5611 75.1133C70.4745 75.1133 70.3839 75.1133 70.3839 75.196L70.2932 75.5401C70.2932 75.6295 70.3839 75.7148 70.4745 75.7148Z" fill="#881D1E"/>
<path fill-rule="evenodd" clip-rule="evenodd" d="M77.0664 76.4909L71.4535 75.2822L71.3643 75.8859L76.9771 77.0093C77.0664 77.0093 77.1557 77.0093 77.1557 76.9253L77.245 76.6681C77.245 76.5801 77.1543 76.4909 77.0664 76.4909Z" fill="#881D1E"/>
<path fill-rule="evenodd" clip-rule="evenodd" d="M70.2037 76.7518L70.4716 76.8371C70.5582 76.8371 70.6488 76.7518 70.7381 76.6678L70.826 76.4054C70.826 76.3201 70.7381 76.2361 70.6474 76.1455L70.3809 76.0615C70.2903 76.0615 70.2024 76.1455 70.1144 76.2361L70.0251 76.5799C70.0251 76.6678 70.1144 76.7518 70.2037 76.7518Z" fill="#881D1E"/>
<path fill-rule="evenodd" clip-rule="evenodd" d="M76.709 77.7895L71.1841 76.3184L71.0068 76.9234L76.6183 78.3079C76.7076 78.3079 76.7983 78.3079 76.7983 78.2213L76.8862 77.9614C76.8862 77.8761 76.7996 77.7895 76.709 77.7895Z" fill="#881D1E"/>
<path fill-rule="evenodd" clip-rule="evenodd" d="M70.3839 77.1846L70.0268 77.0088C70.0268 77.0088 69.9375 77.1007 69.8495 77.1846L69.7603 77.5298C69.7603 77.5298 69.7603 77.6151 69.8495 77.7017L70.2053 77.7883C70.2933 77.7883 70.3839 77.7883 70.3839 77.7017L70.5611 77.3566C70.5611 77.2699 70.4745 77.1846 70.3839 77.1846Z" fill="#881D1E"/>
<path fill-rule="evenodd" clip-rule="evenodd" d="M76.4443 78.9129L70.9194 77.3564L70.7422 77.8761L76.2644 79.4326C76.3537 79.5192 76.4443 79.4326 76.4443 79.3447L76.5309 79.0822C76.5309 78.9995 76.5309 78.9129 76.4443 78.9129Z" fill="#881D1E"/>
<path fill-rule="evenodd" clip-rule="evenodd" d="M70.2063 78.3923C70.2063 78.3083 70.2063 78.2215 70.1183 78.2215L69.7612 78.1335C69.6719 78.0468 69.5813 78.1335 69.5813 78.2215L69.4041 78.4803C69.4041 78.5657 69.4933 78.6524 69.5813 78.7391L69.8505 78.8298C69.9384 78.8298 70.0277 78.8298 70.117 78.7391L70.2063 78.3923Z" fill="#881D1E"/>
<path fill-rule="evenodd" clip-rule="evenodd" d="M76.0842 80.0347L70.5593 78.3916L70.3821 78.9113L75.9043 80.5517C75.9936 80.6383 76.0842 80.5517 76.0842 80.4664L76.1722 80.2053C76.1735 80.12 76.1735 80.12 76.0842 80.0347Z" fill="#881D1E"/>
<path fill-rule="evenodd" clip-rule="evenodd" d="M69.7585 79.17L69.4013 79.082C69.312 79.082 69.2228 79.082 69.2228 79.17L69.0442 79.5195C69.0442 79.6035 69.1321 79.6916 69.2228 79.6916L69.4906 79.7743C69.5772 79.861 69.6678 79.7743 69.7571 79.6916L69.8464 79.4315C69.8491 79.3434 69.8491 79.2554 69.7585 79.17Z" fill="#881D1E"/>
<path fill-rule="evenodd" clip-rule="evenodd" d="M75.638 81.1561L70.2037 79.4316L70.0251 79.9513L75.4608 81.6758C75.5487 81.7624 75.638 81.6758 75.7273 81.5905L75.8166 81.3267C75.8166 81.244 75.7286 81.1561 75.638 81.1561Z" fill="#881D1E"/>
<path fill-rule="evenodd" clip-rule="evenodd" d="M25.2123 71.6524C25.2123 71.4818 25.1257 71.3992 24.9458 71.3992L25.6587 71.2246C25.5694 71.3086 25.4815 71.3991 25.5694 71.5684L25.9266 73.1275C25.9266 73.2102 26.1065 73.2981 26.1931 73.2981L25.4815 73.47C25.5695 73.47 25.6587 73.2981 25.5694 73.2102L25.2123 71.6524Z" fill="#F0CF1B"/>
<path fill-rule="evenodd" clip-rule="evenodd" d="M26.4593 71.4794C26.37 71.1344 26.2807 71.1344 26.1914 71.0465H26.6378L28.2409 72.6049L28.0651 71.3062C28.0651 71.0465 27.9758 70.9652 27.7959 70.9652L28.5088 70.876C28.4195 70.9652 28.3289 70.9652 28.3289 71.2223L28.5088 73.1244C28.4195 73.1244 28.2409 73.0338 28.1516 72.9512L26.6378 71.4781L26.8151 72.862C26.8151 73.0325 26.9043 73.123 26.995 73.207H26.3713C26.4606 73.1244 26.5486 73.1244 26.5486 72.9512L26.4593 71.4794Z" fill="#F0CF1B"/>
<path fill-rule="evenodd" clip-rule="evenodd" d="M29.5799 71.2233H29.3121C29.0456 71.2233 28.9549 71.2233 28.7764 71.3072L28.9549 70.877C28.9549 70.9662 29.0442 70.9661 29.1335 70.9661L30.4687 71.0488C30.5594 71.0488 30.5594 71.0488 30.6473 71.0488L30.4687 71.399C30.4687 71.399 30.2902 71.3085 30.2036 71.3085H29.8437L29.7572 72.9535C29.7572 73.1266 29.8437 73.1266 29.933 73.2093L29.2228 73.1266C29.3107 73.1266 29.4 73.0361 29.4 72.9535L29.5799 71.2233Z" fill="#F0CF1B"/>
<path fill-rule="evenodd" clip-rule="evenodd" d="M31.0059 71.4799C31.0059 71.3972 31.0059 71.2227 30.9166 71.1348L31.9867 71.2227C32.076 71.2227 32.076 71.2227 32.1653 71.1348V71.5678C32.0773 71.4812 31.8974 71.3985 31.6295 71.3985C31.5403 71.3985 31.4523 71.3985 31.363 71.3985V72.0022H31.6295C31.7188 72.0022 31.8095 72.0022 31.8961 72.0022V72.3474C31.8081 72.2568 31.7188 72.2568 31.5389 72.2568H31.2724V73.0364C31.4523 73.0364 31.5389 73.1269 31.7188 73.1269C31.8961 73.1269 32.1639 73.0364 32.3425 72.9537L32.1639 73.3854L30.738 73.2988C30.9153 73.2109 30.9153 73.1282 30.9153 72.955L31.0059 71.4799Z" fill="#F0CF1B"/>
<path fill-rule="evenodd" clip-rule="evenodd" d="M32.8747 73.1275C32.8747 73.2981 32.7854 73.386 32.6975 73.386H33.4091C33.2319 73.386 33.2319 73.2994 33.2319 73.1275L33.3212 71.4818C33.4091 71.4818 33.4984 71.4818 33.5877 71.4818C33.8542 71.4818 33.9448 71.6524 33.9448 71.8283V71.9149C33.9448 72.0881 33.7649 72.1734 33.3212 72.348L33.9448 73.2115C34.122 73.4713 34.2113 73.4713 34.3899 73.4713H34.7457C34.3006 73.2994 34.0341 72.7797 33.7649 72.348C34.0327 72.348 34.3006 72.1747 34.3006 71.8283C34.3899 71.3992 34.0341 71.2246 33.589 71.2246H32.7868C32.8761 71.2246 32.9654 71.2246 32.9654 71.5684L32.8747 73.1275Z" fill="#F0CF1B"/>
<path fill-rule="evenodd" clip-rule="evenodd" d="M35.0123 71.7382C35.0123 71.3972 34.8351 71.3972 34.8351 71.3066L35.2815 71.3972L36.5274 73.1248L36.6167 71.8261C36.6167 71.5664 36.6167 71.4798 36.4382 71.3972L37.1511 71.4798C36.9712 71.5664 36.8819 71.4798 36.8819 71.7382L36.794 73.7295C36.6154 73.7295 36.4368 73.555 36.4368 73.4698L35.1895 71.8274L35.1002 73.21C35.1002 73.3845 35.1895 73.4698 35.2801 73.555L34.6565 73.4698C34.7444 73.3845 34.8337 73.3845 34.923 73.21L35.0123 71.7382Z" fill="#F0CF1B"/>
<path fill-rule="evenodd" clip-rule="evenodd" d="M38.2205 71.4785L38.575 71.5651L39.1986 73.3827C39.2879 73.5533 39.3785 73.6413 39.4665 73.7279H38.7535C38.8428 73.6413 38.9321 73.6413 38.9321 73.5533C38.9321 73.468 38.8442 73.468 38.8442 73.3827L38.6656 72.863H38.2219V72.6058H38.5763L38.3098 71.8263L38.2232 71.9129V71.4785H38.2205ZM38.0406 71.737C38.1272 71.737 38.1272 71.6504 38.1272 71.6504C38.1272 71.5664 38.0406 71.5664 38.0406 71.4798L38.2205 71.4785V71.9142L37.9513 72.6071H38.2205V72.8657H37.862L37.5942 73.3854V73.4707C37.5942 73.556 37.5942 73.556 37.6835 73.6439H37.0598C37.2384 73.4707 37.3263 73.3854 37.3263 73.2987L38.0406 71.737Z" fill="#F0CF1B"/>
<path fill-rule="evenodd" clip-rule="evenodd" d="M40.0924 71.8272H39.8245C39.558 71.8272 39.4687 71.8272 39.2915 71.9138L39.4701 71.5674C39.4701 71.5674 39.558 71.5674 39.6459 71.5674L40.9852 71.6514C41.0732 71.6514 41.0732 71.6514 41.1625 71.6514L40.9852 72.0018C40.9852 71.9152 40.8067 71.9152 40.716 71.9152L40.3616 71.8285L40.2709 73.5569C40.2709 73.7314 40.3616 73.7314 40.4495 73.8194L39.7393 73.7328C39.9165 73.7328 39.9165 73.6461 39.9165 73.5582L40.0924 71.8272Z" fill="#F0CF1B"/>
<path fill-rule="evenodd" clip-rule="evenodd" d="M41.4273 72.0008C41.4273 71.8262 41.4273 71.7383 41.338 71.6504L41.9616 71.737C41.8737 71.737 41.7844 71.8249 41.7844 71.9995L41.6965 73.5533C41.6965 73.7278 41.7844 73.8158 41.875 73.8998L41.1621 73.8158C41.2514 73.8158 41.3393 73.7292 41.3393 73.5533L41.4273 72.0008Z" fill="#F0CF1B"/>
<path fill-rule="evenodd" clip-rule="evenodd" d="M43.3874 71.7383C44.099 71.8262 44.544 72.2567 44.544 72.9535C44.544 73.3853 44.099 74.0756 43.2981 73.989V73.7304C43.8338 73.817 44.099 73.3853 44.1869 72.9535C44.1869 72.5191 43.8324 72.0008 43.2981 72.0008V71.7383H43.3874ZM43.2981 73.989C42.4959 73.989 42.0508 73.4706 42.0508 72.8656C42.0508 72.4325 42.4079 71.7396 43.2994 71.7396V72.0021C42.9436 72.0021 42.4972 72.2567 42.4972 72.779V72.8656C42.4972 73.3853 42.853 73.7304 43.2981 73.7304V73.989Z" fill="#F0CF1B"/>
<path fill-rule="evenodd" clip-rule="evenodd" d="M44.9005 73.7289C44.9005 73.8994 44.8126 73.9873 44.634 73.9873L45.2577 74.0739C45.1684 73.9873 45.0805 73.8994 45.1684 73.7289V72.3463L46.4171 73.9873C46.505 74.0739 46.6849 74.1578 46.7755 74.1578L46.8621 72.2558C46.8621 72.0013 46.9514 72.0013 47.0407 71.9134H46.4171C46.505 71.9134 46.5956 72.0865 46.5956 72.2558L46.505 73.6423L45.259 71.9147L44.7247 71.8281C44.814 71.9147 44.9912 71.9147 44.9912 72.2571L44.9005 73.7289Z" fill="#F0CF1B"/>
<path fill-rule="evenodd" clip-rule="evenodd" d="M48.1997 71.9134H48.3769L49.1791 73.7297C49.2684 73.9003 49.3577 73.9882 49.447 74.0749H48.734C48.8233 74.0749 48.9139 73.9882 48.9139 73.9003L48.8247 73.8163L48.6447 73.2966H48.201V73.0355H48.4675L48.201 72.2559L48.1997 71.9134ZM47.9318 72.172C47.9318 72.0853 47.9318 72.0853 47.9318 72.0853C47.9318 72 47.9318 72 47.8439 71.9121H48.201V72.2559L47.8439 73.0342L48.201 73.0355V73.2966L47.7546 73.2953L47.576 73.815C47.576 73.899 47.576 73.899 47.576 73.899C47.576 73.9856 47.6639 74.0735 47.6639 74.0735H47.0403C47.2189 73.9869 47.3081 73.815 47.3081 73.7284L47.9318 72.172Z" fill="#F0CF1B"/>
<path fill-rule="evenodd" clip-rule="evenodd" d="M49.6253 72.1716C49.6253 71.9997 49.5374 71.9997 49.5374 71.9131H50.161C50.0717 71.9131 49.9811 71.9131 49.9811 72.1716L50.0704 73.7281C50.2476 73.7281 50.4275 73.8147 50.5168 73.8147C50.7833 73.7281 50.9605 73.7281 51.1404 73.5522L50.9605 73.9853L49.5374 74.0719C49.7146 73.9853 49.7146 73.8974 49.7146 73.8134V73.7268L49.6253 72.1716Z" fill="#F0CF1B"/>
<path fill-rule="evenodd" clip-rule="evenodd" d="M52.744 72.3468C52.744 72.52 53.0132 72.6906 53.1904 72.7786L53.5476 72.9544C53.8141 73.0371 53.994 73.1276 53.994 73.2982C53.994 73.2982 53.994 73.2982 53.994 73.3849C53.9047 73.5555 53.7234 73.6434 53.4583 73.6434C53.2797 73.73 53.0132 73.6434 52.744 73.4702L52.9239 73.9019C53.1011 73.9019 53.281 73.9019 53.4596 73.9019C53.9953 73.9019 54.4391 73.5555 54.3484 73.1276C54.3484 72.8665 54.0833 72.7786 53.9047 72.6919L53.4596 72.5213C53.281 72.4347 53.1011 72.3481 53.1011 72.1749V72.0883C53.1904 71.915 53.281 71.915 53.4596 71.8284C53.6355 71.8284 53.9047 71.915 54.0833 72.003L53.9953 71.6526C53.906 71.6526 53.6355 71.5686 53.5489 71.6526H53.461C53.0145 71.6513 52.6574 71.8271 52.744 72.3468Z" fill="#F0CF1B"/>
<path fill-rule="evenodd" clip-rule="evenodd" d="M55.5067 71.4785C55.6839 71.4785 55.8638 71.4785 56.1304 71.4785V71.825C55.8638 71.737 55.596 71.737 55.5067 71.737C54.9737 71.825 54.7924 72.1714 54.7924 72.6058C54.883 73.035 55.2388 73.4693 55.7732 73.384C55.7732 73.384 55.7732 73.384 55.8625 73.384C56.0397 73.384 56.2183 73.2974 56.4861 73.1255L56.3062 73.5547C56.2183 73.6426 55.9491 73.6426 55.7718 73.7292C55.1482 73.7292 54.5246 73.4693 54.4353 72.7764C54.3473 72.1714 54.5273 71.5664 55.5067 71.4785Z" fill="#F0CF1B"/>
<path fill-rule="evenodd" clip-rule="evenodd" d="M56.7518 73.2087C56.7518 73.3831 56.7518 73.5537 56.5746 73.5537L57.2848 73.4684C57.1969 73.4684 57.1076 73.3831 57.1076 73.2087L57.0183 72.5187L58.175 72.3455L58.2643 73.1247C58.3535 73.2074 58.2643 73.3832 58.175 73.3832H58.8C58.712 73.2966 58.6214 73.2087 58.6214 73.0342L58.4442 71.5663C58.4442 71.3066 58.5308 71.3066 58.6214 71.2227L57.9098 71.3066C58.0857 71.3066 58.0857 71.4798 58.175 71.5663V72.0858L56.9277 72.255V71.7369C56.9277 71.5663 56.9277 71.4785 57.017 71.3958L56.3933 71.4785C56.5732 71.565 56.5732 71.649 56.5732 71.8248L56.7518 73.2087Z" fill="#F0CF1B"/>
<path fill-rule="evenodd" clip-rule="evenodd" d="M60.1412 71.0479C60.7648 71.0479 61.3005 71.3983 61.3885 72.0019C61.3885 72.5203 61.122 73.2106 60.2304 73.2985H60.1412V73.0374H60.2304C60.7648 73.0374 61.0327 72.6082 60.9434 72.1738V72.0872C60.9434 71.6515 60.5862 71.3077 60.1398 71.3077L60.1412 71.0479ZM59.9639 71.0479C60.0519 71.0479 60.0519 71.0479 60.1412 71.0479L60.1398 71.3077C60.0519 71.3077 60.0532 71.3077 59.9639 71.3077C59.6068 71.3077 59.2497 71.6515 59.2497 72.1738V72.2565C59.3403 72.6909 59.6974 73.0361 60.1412 73.0361V73.2985C59.4296 73.2985 58.9845 72.8641 58.8939 72.3458C58.8059 71.8274 59.0711 71.1345 59.9639 71.0479Z" fill="#F0CF1B"/>
<path fill-rule="evenodd" clip-rule="evenodd" d="M62.9881 71.0478C63.7011 71.1345 64.1489 71.5675 64.0582 72.2565C64.0582 72.7775 63.6118 73.2972 62.9016 73.2972V73.036C63.2573 73.036 63.6118 72.6909 63.7024 72.3471V72.2565C63.7917 71.8274 63.5225 71.3077 62.9895 71.2237C62.9029 71.2237 62.9029 71.2237 62.9029 71.2237V71.0478H62.9881ZM62.9002 73.2972C62.8109 73.2972 62.8109 73.2972 62.7203 73.2972C61.9167 73.1266 61.5623 72.6069 61.5623 72.0006C61.6502 71.5662 62.0087 70.9652 62.8988 71.0465V71.2224C62.5403 71.2224 62.0953 71.4796 62.0087 72.0006C61.9167 72.519 62.2752 72.9534 62.7189 73.036C62.8082 73.036 62.8082 73.036 62.8988 73.036L62.9002 73.2972Z" fill="#F0CF1B"/>
<path fill-rule="evenodd" clip-rule="evenodd" d="M64.6786 71.6513C64.7693 71.4808 64.6786 71.4808 64.6786 71.3076L65.3023 71.4808C65.213 71.5673 65.1237 71.5673 65.0371 71.7392L64.5907 73.2976C64.7706 73.3842 64.9478 73.3842 65.0371 73.4694C65.2143 73.4694 65.4808 73.4694 65.6608 73.3842L65.3943 73.817L63.967 73.3842C64.147 73.3842 64.2335 73.2976 64.2335 73.2097V73.127L64.6786 71.6513Z" fill="#F0CF1B"/>
<path fill-rule="evenodd" clip-rule="evenodd" d="M8.64735 42.8008C8.55736 42.89 8.55736 42.89 8.4646 42.89C8.4646 42.89 8.4646 42.89 8.4646 42.8008C8.4646 42.8008 8.55598 42.8008 8.64735 42.8008Z" fill="#881D1E"/>
<path fill-rule="evenodd" clip-rule="evenodd" d="M9.35341 17.748C8.81904 17.748 8.37396 17.8346 7.92888 18.0065V38.4806V63.5342C8.28603 64.0537 8.99761 64.3986 9.53333 64.5718C9.53333 64.6571 9.53333 64.6571 9.53333 65.4363L10.5128 65.6094C10.9579 65.6921 11.4949 65.7799 12.1186 65.7799C13.5431 65.7799 14.7011 65.1752 15.2368 64.3121C15.2368 64.3121 15.414 63.6181 15.5033 62.1529C15.5033 61.9771 15.414 61.0287 14.8797 55.9338C14.8797 55.9338 14.5225 52.9928 14.4332 51.3531C14.7011 51.5275 15.0569 51.7846 15.414 51.8712C15.594 51.9578 16.3056 52.3907 16.8413 52.8209L19.3359 54.6325C19.3359 54.6325 18.2658 51.3531 17.9993 50.8323C18.6229 50.5765 22.2769 48.9342 22.2769 48.9342L18.3564 48.6731C17.1984 48.5878 15.9525 48.2428 15.6833 47.9005C15.6833 47.8113 15.6833 47.5529 15.6833 47.5529V47.2931L15.7712 46.8602C15.7712 46.6897 15.7712 46.5126 15.6833 46.4274C15.7712 46.1702 15.9511 45.9945 16.039 45.7374C16.219 45.2192 16.3069 44.785 16.3069 44.2655C16.3069 42.1943 14.881 40.0338 14.2574 39.778C14.2574 39.778 14.1681 39.778 14.1681 39.6875C14.1681 39.6035 14.1681 39.4304 14.1681 39.3451C14.1681 37.9599 13.9909 37.7041 13.811 37.6162C13.811 37.6162 13.7217 37.5296 13.6337 37.4417C13.6337 35.4557 14.0788 21.8919 14.0788 21.2859V21.1993L13.4552 20.0791C13.0967 19.4757 12.4744 19.128 11.8507 18.9562C11.8507 18.8722 11.8507 18.6951 11.8507 18.4394V18.0891L11.1391 18.0065L10.8726 17.9212C10.5128 17.8346 9.89048 17.748 9.35341 17.748ZM7.92888 18.0065C7.12666 18.1796 6.50166 18.6112 6.23515 19.2146C6.05523 19.5635 5.87801 20.167 5.96865 21.3751C5.96865 21.5496 6.05658 22.414 6.5923 27.2518V27.3371C7.12666 31.3118 7.92888 37.8759 7.92888 38.4806C7.83825 38.5672 7.83825 38.5672 7.83825 38.5672C7.83825 38.5672 7.83825 38.5672 7.92888 38.5672C7.74896 38.739 7.66238 38.9096 7.66238 39.3464C7.66238 39.3464 7.66238 39.4317 7.66238 39.5143H7.57309C7.04008 39.8645 5.79278 41.9358 5.70214 43.8366V43.9219C5.70214 44.5279 5.87936 45.0461 6.05658 45.5668L6.14857 45.6547C6.14857 45.6547 6.23651 45.9079 6.32579 46.085C6.32579 46.1716 6.41508 47.0347 6.41508 47.0347H6.50166C6.50166 47.1187 6.50166 47.2931 6.50166 47.5529C6.50166 47.5529 6.50166 47.5529 6.50166 47.6394V47.7247C6.23515 48.0697 5.07714 48.5 3.91777 48.5865L0 49.0207C0 49.0207 3.7419 50.4886 4.27762 50.6631C4.0977 51.2665 3.20754 54.5525 3.20754 54.5525L5.52222 52.6504C6.14722 52.2175 6.77222 51.7846 6.94944 51.6981C7.21595 51.5262 7.57309 51.3517 7.8396 51.1799C7.75031 52.9036 7.57309 62.6671 7.57309 62.6671C7.57309 62.9295 7.75031 63.2758 7.93024 63.5329L7.92888 38.4806V18.0065Z" fill="#881D1E"/>
<path fill-rule="evenodd" clip-rule="evenodd" d="M20.4897 49.2766L18.2616 49.1048C17.2821 49.1048 15.679 48.6706 15.234 48.1564C15.234 48.0698 15.234 47.8101 15.234 47.5516C15.234 47.3772 15.234 47.2053 15.3233 47.1174C15.3233 47.0335 15.3233 46.9469 15.3233 46.859C15.3233 46.6885 15.234 46.5114 15.234 46.5114L15.1447 46.4261C15.3246 46.2556 15.5018 45.9933 15.6804 45.5643C16.5719 43.3146 14.5224 40.3776 14.076 40.1204L13.7175 40.0326C13.8067 39.0815 13.7175 38.1344 13.5402 37.9586L13.1831 37.615C13.1831 36.576 13.6295 21.2847 13.6295 21.2847L13.0059 20.2484C12.6487 19.6437 11.8479 19.3865 11.4014 19.3026C11.4014 19.2121 11.4014 19.2121 11.4014 19.2121C11.4014 19.1255 11.4014 18.4368 11.4014 18.4368L11.0443 18.3502H10.7791C10.422 18.265 9.88897 18.1758 9.3519 18.1758C8.01667 18.1758 6.94794 18.6074 6.59079 19.4731C6.32429 20.0765 6.41357 21.3726 6.41357 21.3726C6.41357 21.547 6.50015 22.7552 7.03722 27.2493C7.57024 31.4759 8.37246 37.9573 8.37246 38.4768C8.37246 38.5634 8.37246 38.5634 8.37246 38.5634L8.28453 38.7352C8.10731 38.9044 8.10731 38.9044 8.10731 39.6836L7.83674 39.8594C7.39166 40.1178 6.23365 41.9307 6.14572 43.8315C6.14572 44.3496 6.23365 44.8651 6.41357 45.3859C6.50015 45.5617 6.67873 45.8201 6.67873 45.9041L6.8573 46.8564C6.94659 47.0309 6.94659 47.3746 6.94659 47.6356C6.94659 47.7209 6.94659 47.8953 6.94659 47.8953C6.58944 48.4961 4.98635 48.929 3.91627 49.0156L1.77881 49.2727C1.77881 49.2727 4.3627 50.2224 4.80778 50.3969C4.6292 50.9163 4.00555 53.3339 4.00555 53.3339L5.25285 52.295C5.69928 51.9526 6.50015 51.4319 6.76937 51.2613C7.48095 51.0029 7.92603 50.5713 8.28317 50.2224C8.19389 53.0742 7.92603 62.0586 7.92603 62.0586C7.92603 62.0586 7.92603 62.3183 7.92603 62.4062C7.92603 63.613 9.25991 64.1325 10.0635 64.219C10.0635 64.3056 9.9742 65.0835 9.9742 65.0835L10.5992 65.1688C10.955 65.2553 11.5786 65.3419 12.1144 65.3419C13.3617 65.3419 14.429 64.9103 14.7862 64.1311C15.0527 63.5277 15.0527 62.1451 15.0527 62.1451C15.0527 62.0572 14.8755 60.6773 14.429 56.01C14.2518 54.285 14.0732 52.2111 13.8054 50.3077C14.1625 50.7432 14.7862 51.1748 15.5884 51.5198C15.8536 51.6037 16.6558 52.1232 17.1022 52.4695L18.4388 53.4205C18.4388 53.4205 17.6352 51.0856 17.458 50.5687C17.9058 50.4008 20.4897 49.2766 20.4897 49.2766Z" fill="#F0CF1B"/>
<path fill-rule="evenodd" clip-rule="evenodd" d="M8.90973 23.1053C8.28744 22.9296 7.66379 22.498 7.30664 22.0664C7.39457 23.1053 7.57315 25.0914 7.83965 27.1613C8.90973 35.6301 9.17759 37.8759 9.17759 38.4806C9.35481 38.6564 10.4249 38.8283 11.315 38.6564C11.8508 38.4806 12.2066 38.2209 12.3851 37.7906C12.3851 37.5296 12.6516 27.77 12.7423 22.0664C12.1186 22.6711 10.8713 23.5382 8.90973 23.1053Z" fill="url(#paint6_linear_129_3459)"/>
<path fill-rule="evenodd" clip-rule="evenodd" d="M9.35342 18.9561C7.9289 19.0413 7.48382 19.5621 7.30525 19.8205C7.21596 20.0789 7.21596 20.3374 7.30525 20.5105C8.46191 22.1528 9.79985 22.2381 10.3329 22.1528C10.3329 21.8039 10.5114 19.4755 10.6007 19.1279C10.2463 19.0426 9.79985 18.9561 9.35342 18.9561Z" fill="url(#paint7_linear_129_3459)"/>
<path fill-rule="evenodd" clip-rule="evenodd" d="M11.313 21.8947C11.9366 21.6362 12.471 21.2884 12.471 21.1191C12.471 20.4249 11.8474 20.1677 11.4916 20.0811C11.4036 20.5115 11.4036 21.3763 11.313 21.8947Z" fill="url(#paint8_linear_129_3459)"/>
<path fill-rule="evenodd" clip-rule="evenodd" d="M9.44553 43.2344C9.26561 45.1351 8.91117 56.1068 8.64331 61.3736C9.35489 60.6836 10.6035 59.9936 12.5624 60.4252C13.0968 60.5957 13.7191 61.1152 14.1669 61.4615C14.0789 60.4252 13.8097 58.2607 13.6339 56.1068C12.7437 47.293 12.4759 44.1828 12.3866 43.2344C11.9388 43.4036 10.9593 43.6646 9.44553 43.2344Z" fill="url(#paint9_linear_129_3459)"/>
<path fill-rule="evenodd" clip-rule="evenodd" d="M11.0478 61.3733C11.0478 61.7223 10.8706 64.0533 10.8706 64.4835C11.1371 64.4835 11.5808 64.5714 12.0273 64.5714C13.4531 64.5714 13.9875 63.9667 14.0768 63.7096C14.2554 63.4472 14.2554 63.1888 14.0768 63.0144C13.0081 61.3733 11.5822 61.2894 11.0478 61.3733Z" fill="url(#paint10_linear_129_3459)"/>
<path fill-rule="evenodd" clip-rule="evenodd" d="M8.90796 62.4117C8.90796 63.102 9.53296 63.3644 9.88875 63.4484C9.97533 63.1033 10.066 62.1531 10.066 61.6348C9.44368 61.892 8.99725 62.2384 8.90796 62.4117Z" fill="url(#paint11_linear_129_3459)"/>
<path fill-rule="evenodd" clip-rule="evenodd" d="M13.1861 38.3945C11.6709 40.639 8.7326 39.1711 8.64331 39.0832L8.82188 42.1082C8.82188 42.1082 11.6723 43.6639 13.1874 41.7658L13.1861 38.3945Z" fill="url(#paint12_linear_129_3459)"/>
<path fill-rule="evenodd" clip-rule="evenodd" d="M8.01755 40.3809C7.83898 40.4674 6.05596 43.234 6.94882 45.1347C7.66176 46.7744 8.28541 45.9966 8.46263 47.4657C8.46263 47.5523 8.73049 43.7508 8.73049 43.7508C8.73049 43.7508 8.01755 43.4885 8.01755 41.9353C8.01755 41.5064 8.01755 40.3809 8.01755 40.3809Z" fill="url(#paint13_linear_129_3459)"/>
<path fill-rule="evenodd" clip-rule="evenodd" d="M8.46387 48.241C8.46387 48.4142 8.64245 49.886 6.50364 50.8318C6.0572 51.0076 4.98983 51.9573 4.98983 51.9573L5.43491 50.1444L4.00903 49.5384C4.00903 49.5384 6.77285 49.2773 7.39514 48.1571C7.57372 47.9 7.48443 46.9476 7.39514 46.6892C7.21657 46.3442 8.37459 47.4658 8.46387 48.241Z" fill="url(#paint14_linear_129_3459)"/>
<path fill-rule="evenodd" clip-rule="evenodd" d="M13.8088 40.6387C14.0766 40.7279 15.9489 43.4039 15.1454 45.3912C14.5217 47.0349 13.8088 46.257 13.7181 47.8101L13.2744 43.4039C13.2744 43.4039 13.9873 42.9723 13.9873 41.7668C13.9887 41.4166 13.8088 40.6387 13.8088 40.6387Z" fill="url(#paint15_linear_129_3459)"/>
<path fill-rule="evenodd" clip-rule="evenodd" d="M13.8107 48.5008C13.8107 48.6713 13.6335 50.1445 15.771 51.0076C16.2174 51.1808 17.4647 52.0452 17.4647 52.0452L16.841 50.315L18.2656 49.6237C18.2656 49.6237 15.5044 49.4545 14.7915 48.4155C14.6143 48.1571 14.6143 47.2061 14.7915 46.8611C14.9687 46.6027 13.8107 47.7242 13.8107 48.5008Z" fill="url(#paint16_linear_129_3459)"/>
<path fill-rule="evenodd" clip-rule="evenodd" d="M82.2362 42.7998C82.1448 42.889 82.1448 42.889 82.1448 42.889C82.1448 42.889 82.0535 42.889 82.0535 42.7998C82.1448 42.7998 82.1448 42.7998 82.2362 42.7998Z" fill="#881D1E"/>
<path fill-rule="evenodd" clip-rule="evenodd" d="M82.6795 63.5342C82.8567 63.2771 83.0366 62.9308 83.0366 62.6684C83.0366 62.6684 82.8567 52.9049 82.8567 51.1812C83.1259 51.3531 83.3924 51.5275 83.6603 51.6994C83.8388 51.7846 84.4638 52.2188 85.0875 52.6517L87.4915 54.5538C87.4915 54.5538 86.5107 51.2678 86.3348 50.6644C86.9571 50.4899 90.6097 49.022 90.6097 49.022L86.6892 48.5878C85.6219 48.5026 84.3746 48.071 84.1067 47.726V47.6407C84.1067 47.5542 84.1067 47.5542 84.1067 47.5542C84.1067 47.2944 84.1067 47.12 84.1946 47.036C84.1946 47.036 84.2839 46.1729 84.3746 46.0863C84.3746 45.9105 84.5518 45.656 84.5518 45.656V45.5681C84.8183 45.0474 84.9089 44.5292 84.9089 43.9232V43.8379C84.8196 41.9372 83.6616 39.8659 83.038 39.5156H82.9487C82.9487 39.433 82.9487 39.3477 82.9487 39.3477C82.9487 38.9109 82.8594 38.7417 82.7715 38.5685C82.7715 38.5685 82.7715 38.5685 82.7715 38.4819C82.7715 37.8772 83.5723 31.3131 84.0188 27.3384V27.2532C84.5518 22.4153 84.7317 21.5509 84.7317 21.3764C84.7317 20.167 84.5518 19.5635 84.4652 19.2159C84.1081 18.6125 83.4817 18.1796 82.6822 17.9225V38.4819V63.5342H82.6795ZM79.8291 17.9212L79.4719 18.0065L78.7604 18.0891V18.4394C78.7604 18.6951 78.7604 18.8722 78.7604 18.9562C78.2246 19.128 77.601 19.4757 77.1559 20.0791L76.5309 21.1993L76.6202 21.2859C76.6202 21.8919 76.9773 35.4557 77.0666 37.4417C76.9773 37.5283 76.8001 37.6162 76.8001 37.6162C76.7108 37.7027 76.443 37.9599 76.443 39.3451C76.443 39.4304 76.443 39.6035 76.443 39.6875C76.443 39.778 76.3537 39.778 76.3537 39.778C75.8193 40.0338 74.3055 42.1943 74.3055 44.2655C74.3055 44.785 74.3921 45.2192 74.572 45.7374C74.6613 45.9958 74.8385 46.1716 74.9292 46.4274C74.9292 46.5126 74.8399 46.6884 74.8399 46.8602L74.9292 47.2931V47.5529C74.9292 47.5529 74.9292 47.8113 74.9292 47.9005C74.6613 48.2428 73.4127 48.5878 72.3453 48.6731L68.4248 48.9342C68.4248 48.9342 72.0761 50.5765 72.6131 50.8323C72.4332 51.3531 71.2766 54.6325 71.2766 54.6325L73.7712 52.8209C74.3948 52.3907 75.0185 51.9578 75.1984 51.8712C75.5542 51.7846 75.9086 51.5275 76.2658 51.3531C76.0885 52.9928 75.7327 55.9338 75.7327 55.9338C75.2877 61.0274 75.1984 61.9758 75.1984 62.1529C75.1984 63.6195 75.4649 64.3121 75.4649 64.3121C75.9086 65.1752 77.0693 65.7799 78.5818 65.7799C79.1161 65.7799 79.7398 65.6907 80.0969 65.6094L81.167 65.4363C81.0777 64.6571 81.0777 64.6571 81.0777 64.5718C81.7014 64.3986 82.325 64.0537 82.6822 63.5342V38.4806V17.9212C82.325 17.8359 81.792 17.748 81.3442 17.748C80.7192 17.748 80.1862 17.8346 79.8291 17.9212Z" fill="#881D1E"/>
<path fill-rule="evenodd" clip-rule="evenodd" d="M73.1442 50.5756C72.967 51.0924 72.1634 53.4274 72.1634 53.4274L73.5 52.4763C74.0357 52.1313 74.7473 51.6119 75.0138 51.5266C75.904 51.1803 76.441 50.75 76.7968 50.3145C76.6169 52.2179 76.3504 54.2905 76.1718 56.0168C75.7267 60.6841 75.6361 62.0641 75.6361 62.152C75.6361 62.152 75.5482 63.5346 75.8147 64.138C76.1705 64.9185 77.2405 65.3488 78.5758 65.3488C79.1101 65.3488 79.6459 65.2622 80.0016 65.1756L80.6266 65.0903C80.6266 65.0903 80.6266 64.3125 80.6266 64.2259C81.3369 64.1393 82.6748 63.6198 82.6748 62.413C82.6748 62.3264 82.6748 62.0654 82.6748 62.0654C82.6748 62.0654 82.4949 53.0797 82.3177 50.2293C82.6748 50.5782 83.2092 51.0098 83.8328 51.2682C84.1007 51.4387 84.9016 51.9595 85.348 52.3019L86.6819 53.3408C86.6819 53.3408 85.9716 50.9232 85.7904 50.4037C86.2382 50.2293 88.822 49.2795 88.822 49.2795L86.6819 49.0224C85.6145 48.9358 84.0101 48.503 83.7435 47.9022C83.6543 47.9022 83.6543 47.7277 83.6543 47.6424C83.6543 47.3814 83.6543 47.0377 83.7435 46.8632L83.9208 45.9109C84.0101 45.8269 84.0993 45.5685 84.1873 45.3927C84.3672 44.872 84.4565 44.3551 84.4565 43.8383C84.3672 41.9375 83.2078 40.1247 82.8493 39.8662L82.4922 39.6905C82.4922 38.9113 82.4922 38.9113 82.4056 38.742L82.3163 38.5702C82.3163 38.5702 82.3163 38.5702 82.3163 38.4836C82.3163 37.9642 83.0293 31.4827 83.5636 27.2562C84.0993 22.762 84.2766 21.5539 84.2766 21.3794C84.2766 21.3794 84.2766 20.0834 84.0101 19.48C83.6529 18.6142 82.5842 18.1826 81.3355 18.1826C80.8025 18.1826 80.1789 18.2705 79.8217 18.3571H79.5552L79.1981 18.4437C79.1981 18.4437 79.1981 19.1337 79.2874 19.2189C79.2874 19.2189 79.2874 19.2189 79.2874 19.3094C78.7516 19.3934 77.9508 19.6505 77.5936 20.2552L76.97 21.2915C76.97 21.2915 77.4137 36.5829 77.503 37.6218L77.0593 37.9655C76.8793 38.1413 76.8793 39.0884 76.8793 40.0394L76.5222 40.1273C76.0785 40.3857 74.1182 43.3215 75.0084 45.5711C75.0977 46.0001 75.2762 46.2611 75.4548 46.433V46.5182C75.3655 46.5182 75.2762 46.694 75.2762 46.8659C75.2762 46.9524 75.2762 47.0403 75.3642 47.1243C75.3642 47.2109 75.3642 47.384 75.3642 47.5585C75.3642 47.8169 75.3642 48.0766 75.3642 48.1632C75.007 48.6787 73.316 49.1116 72.3366 49.1116L70.1978 49.2835C70.2059 49.2782 72.6978 50.4024 73.1442 50.5756Z" fill="#F0CF1B"/>
<path fill-rule="evenodd" clip-rule="evenodd" d="M77.8701 22.0664C78.0487 27.7713 78.2259 37.5309 78.3152 37.7906C78.4031 38.2209 78.8496 38.4793 79.3839 38.6564C80.2754 38.8269 81.2535 38.6564 81.5227 38.4806C81.5227 37.8759 81.7892 35.6301 82.77 27.1613C83.0365 25.0914 83.2151 23.1053 83.3937 22.0664C82.9473 22.498 82.3236 22.9296 81.7892 23.1053C79.829 23.5382 78.4938 22.6711 77.8701 22.0664Z" fill="url(#paint17_linear_129_3459)"/>
<path fill-rule="evenodd" clip-rule="evenodd" d="M80.0951 19.1289C80.0951 19.4765 80.275 21.8049 80.275 22.1538C80.8094 22.2391 82.2353 22.1538 83.3027 20.5115C83.4799 20.337 83.4799 20.0799 83.3027 19.8215C83.2147 19.5631 82.679 19.0423 81.2518 18.957C80.8987 18.9557 80.3616 19.0423 80.0951 19.1289Z" fill="url(#paint18_linear_129_3459)"/>
<path fill-rule="evenodd" clip-rule="evenodd" d="M79.2935 21.8947C78.6699 21.6362 78.2235 21.2884 78.1328 21.1191C78.1328 20.4249 78.7578 20.1677 79.1136 20.0811C79.2042 20.5115 79.2935 21.3763 79.2935 21.8947Z" fill="url(#paint19_linear_129_3459)"/>
<path fill-rule="evenodd" clip-rule="evenodd" d="M81.1662 43.2344C81.342 45.1351 81.7898 56.1068 81.967 61.3736C81.3434 60.6836 80.0961 59.9936 78.1359 60.4252C77.5122 60.5957 76.8885 61.1152 76.4448 61.4615C76.622 60.4252 76.802 58.2607 76.9792 56.1068C77.8707 47.293 78.2265 44.1828 78.2265 43.2344C78.7609 43.4036 79.7389 43.6646 81.1662 43.2344Z" fill="url(#paint20_linear_129_3459)"/>
<path fill-rule="evenodd" clip-rule="evenodd" d="M76.5303 63.0144C76.4437 63.1888 76.4437 63.4472 76.5303 63.7096C76.7102 63.9667 77.1553 64.5714 78.5798 64.5714C79.0276 64.5714 79.4713 64.4835 79.8271 64.4835C79.7378 64.0533 79.5606 61.7223 79.5606 61.3733C79.0276 61.2894 77.691 61.3733 76.5303 63.0144Z" fill="url(#paint21_linear_129_3459)"/>
<path fill-rule="evenodd" clip-rule="evenodd" d="M81.6995 62.4117C81.6995 63.102 81.0759 63.3644 80.7187 63.4484C80.6321 63.1033 80.6321 62.1531 80.5415 61.6348C81.1652 61.892 81.6995 62.2384 81.6995 62.4117Z" fill="url(#paint22_linear_129_3459)"/>
<path fill-rule="evenodd" clip-rule="evenodd" d="M77.4192 38.3955C78.9357 40.64 81.874 39.1721 81.9633 39.0842C82.0526 39.0842 81.874 42.1091 81.874 42.1091C81.874 42.1091 78.9357 43.6649 77.4192 41.7668V38.3955Z" fill="url(#paint23_linear_129_3459)"/>
<path fill-rule="evenodd" clip-rule="evenodd" d="M82.5908 40.3809C82.7693 40.4674 84.5496 43.234 83.6595 45.1347C82.9465 46.7744 82.3229 45.9966 82.1457 47.4657C82.1457 47.5523 81.8765 43.7508 81.8765 43.7508C81.8765 43.7508 82.5908 43.4885 82.5908 41.9353C82.5908 41.5064 82.5908 40.3809 82.5908 40.3809Z" fill="url(#paint24_linear_129_3459)"/>
<path fill-rule="evenodd" clip-rule="evenodd" d="M82.2357 48.241C82.1464 48.4142 81.9665 49.886 84.1053 50.8318C84.5503 51.0076 85.707 51.9573 85.707 51.9573L85.1726 50.1444L86.5999 49.5384C86.5999 49.5384 83.8374 49.2773 83.2138 48.1571C83.0352 47.9 83.1258 46.9476 83.3017 46.6892C83.4803 46.3442 82.2357 47.4658 82.2357 48.241Z" fill="url(#paint25_linear_129_3459)"/>
<path fill-rule="evenodd" clip-rule="evenodd" d="M76.8009 40.6387C76.5317 40.7279 74.7501 43.4039 75.4644 45.3912C76.1759 47.0349 76.8009 46.257 76.9782 47.8101L77.3353 43.4039C77.3353 43.4039 76.6224 42.9723 76.6224 41.7668C76.621 41.4166 76.8009 40.6387 76.8009 40.6387Z" fill="url(#paint26_linear_129_3459)"/>
<path fill-rule="evenodd" clip-rule="evenodd" d="M76.8907 48.5008C76.8907 48.6714 76.98 50.1445 74.8425 51.0076C74.3961 51.1808 73.2394 52.0452 73.2394 52.0452L73.7724 50.315L72.3479 49.625C72.3479 49.625 75.109 49.4558 75.8219 48.4169C75.9992 48.1585 75.9992 47.2074 75.8219 46.8624C75.6434 46.6027 76.8907 47.7243 76.8907 48.5008Z" fill="url(#paint27_linear_129_3459)"/>
<path fill-rule="evenodd" clip-rule="evenodd" d="M69.0437 0.0390617C68.5094 0.124327 67.5286 0.471947 64.946 1.9372C62.8979 3.14797 62.0943 3.6648 61.7385 3.92585C56.4828 2.20086 50.9579 1.24852 45.4356 1.24852C39.7335 1.24852 34.2086 2.20086 28.9515 3.92585C27.7029 2.89086 23.34 0.471947 21.7342 0.125639C21.6476 0.0390617 20.7548 0.0390617 20.7548 0.0390617C20.5776 0.0390617 17.0129 0.471947 15.8549 3.84058C14.6968 6.95211 16.5692 9.3684 16.6571 9.54024H16.7464V9.62682L21.8249 14.5512C21.8249 14.5512 22.9829 12.9968 23.4293 12.476C23.965 13.082 26.1038 15.413 26.1038 15.413L26.9047 14.9828C32.6961 12.1284 38.9326 10.6644 45.437 10.6644C51.8507 10.6644 58.0859 12.1297 63.7894 14.9828L64.5902 15.413C64.5902 15.413 66.7304 13.082 67.2621 12.476C67.7098 12.9968 68.8692 14.5512 68.8692 14.5512L73.9477 9.53893H74.0356C74.1249 9.3684 75.9945 6.9508 74.9271 3.83927C73.6758 0.471947 70.1138 0.0390617 70.0245 0.0390617C70.0245 0.0390617 69.4009 -0.0488271 69.0437 0.0390617Z" fill="#881D1E"/>
<path fill-rule="evenodd" clip-rule="evenodd" d="M74.4845 4.01118C73.4144 0.8157 70.1189 0.472015 69.939 0.472015H69.3154C68.9582 0.472015 68.4252 0.472015 65.2177 2.37015C62.8137 3.75407 62.0994 4.18171 61.8329 4.35749C56.5772 2.62857 51.0523 1.67885 45.4408 1.67885C39.7386 1.67885 34.1244 2.62857 28.8687 4.44275C27.7987 3.40776 22.5429 0.470703 21.3849 0.470703H20.7599C20.6733 0.470703 17.3752 0.814388 16.2185 4.00987C15.2377 6.95087 16.9287 9.19269 17.0194 9.28189H17.1087L21.83 13.8613L23.4344 11.7874L26.1956 14.895L26.642 14.6379C32.6106 11.6982 38.9364 10.2329 45.4408 10.2329C51.9438 10.2329 58.179 11.6995 63.9704 14.6379L64.5047 14.8084L67.2659 11.7874L68.873 13.8613L73.6823 9.28189C73.7702 9.194 75.4639 6.95087 74.4845 4.01118Z" fill="#F0CF1B"/>
<path fill-rule="evenodd" clip-rule="evenodd" d="M70.0276 7.72802C70.0276 7.72802 68.4232 4.79095 69.3147 1.33443C69.4932 0.472595 62.3652 4.87753 62.3652 4.87753C64.9491 5.56621 69.6705 7.98643 69.6705 7.98643L70.0276 7.72802Z" fill="url(#paint28_linear_129_3459)"/>
<path fill-rule="evenodd" clip-rule="evenodd" d="M69.848 1.16016C70.2038 1.24673 72.8757 1.59304 73.7658 4.27037C74.6573 6.77717 73.0542 8.84846 73.0542 8.84846L68.9552 12.8205L67.7092 11.1808L70.6489 7.984C70.2918 6.77586 69.7588 6.60402 69.5788 3.40591C69.4909 2.36961 69.848 1.16016 69.848 1.16016Z" fill="url(#paint29_linear_129_3459)"/>
<path fill-rule="evenodd" clip-rule="evenodd" d="M20.6689 7.81066C20.6689 7.81066 22.272 4.79095 21.3805 1.33443C21.202 0.472595 28.3286 4.87753 28.3286 4.87753C26.1032 5.48226 20.9355 8.07039 20.9355 8.07039L20.6689 7.81066Z" fill="url(#paint30_linear_129_3459)"/>
<path fill-rule="evenodd" clip-rule="evenodd" d="M20.8481 1.16016C20.4909 1.24673 17.8204 1.59304 16.9276 4.27037C16.0374 6.77717 17.6405 8.84846 17.6405 8.84846L21.7382 12.8205L22.9869 11.1808L20.0472 7.984C20.4043 6.77586 20.9373 6.60402 21.2052 3.40591C21.2052 2.36961 20.8481 1.16016 20.8481 1.16016Z" fill="url(#paint31_linear_129_3459)"/>
<path fill-rule="evenodd" clip-rule="evenodd" d="M45.439 9.53896C52.2086 9.53896 58.6236 11.096 64.3258 13.9465L69.315 8.41739C62.2789 4.61456 54.0809 2.37012 45.4404 2.37012C36.7079 2.37012 28.6005 4.61456 21.3845 8.50266L26.3737 14.0344C32.1624 11.096 38.5775 9.53896 45.439 9.53896Z" fill="url(#paint32_linear_129_3459)"/>
<path fill-rule="evenodd" clip-rule="evenodd" d="M28.0646 9.71353L26.8146 8.41618C26.728 8.24172 26.6374 8.15776 26.5481 8.15776L27.0838 7.9833C27.0838 7.9833 27.0838 7.9833 27.0838 8.06856C27.0838 8.06856 27.1717 8.15776 27.1717 8.24172L28.3298 9.44986V7.89541C28.3298 7.80883 28.3298 7.80883 28.3298 7.80883C28.2418 7.6383 28.1525 7.6383 28.066 7.55435L28.5976 7.37988V9.96932L28.3298 9.88668C28.2418 9.88668 28.1525 9.79617 28.0646 9.71353Z" fill="#F0CF1B"/>
<path fill-rule="evenodd" clip-rule="evenodd" d="M29.312 7.55398C29.224 7.46871 29.1334 7.29162 28.9548 7.29162L29.6664 7.12109C29.5785 7.20767 29.5785 7.29162 29.5785 7.47003L30.2021 9.02448C30.2021 9.10974 30.3794 9.1937 30.4673 9.1937L29.7557 9.45212C29.8423 9.45212 29.9316 9.2829 29.8423 9.10974L29.312 7.55398Z" fill="#F0CF1B"/>
<path fill-rule="evenodd" clip-rule="evenodd" d="M30.3794 7.2925C30.3794 7.12197 30.2901 7.03802 30.2021 6.95144L31.2695 6.60513C31.2695 6.60513 31.3588 6.60513 31.4494 6.51855L31.536 6.95275C31.4494 6.86093 31.2695 6.95275 31.003 6.95275C30.9137 7.03802 30.8258 7.03802 30.7365 7.03802L30.9137 7.64012L31.2709 7.55617C31.3602 7.55617 31.4508 7.55617 31.4508 7.4709L31.628 7.81065C31.5387 7.81065 31.3615 7.81065 31.2709 7.81065L31.003 7.89723L31.2695 8.67642C31.4494 8.67642 31.6267 8.67642 31.716 8.58985C31.9825 8.50327 32.161 8.418 32.3396 8.15958L32.2503 8.67642L30.9137 9.11062C30.9137 8.93484 30.9137 8.84958 30.9137 8.763L30.3794 7.2925Z" fill="#F0CF1B"/>
<path fill-rule="evenodd" clip-rule="evenodd" d="M32.6978 6.4309L32.4299 6.51748C32.2514 6.60406 32.0741 6.68801 31.9849 6.77721V6.3417C31.9849 6.3417 32.0741 6.3417 32.1634 6.3417L33.4987 5.99802C33.588 5.91406 33.588 5.91406 33.6786 5.91406V6.3417C33.5893 6.25906 33.4987 6.25906 33.3214 6.25906L33.0536 6.3417L33.4987 8.06931C33.588 8.24246 33.6786 8.24246 33.7652 8.33035L33.0536 8.50219C33.1415 8.41824 33.2322 8.33035 33.1415 8.24377L32.6978 6.4309Z" fill="#F0CF1B"/>
<path fill-rule="evenodd" clip-rule="evenodd" d="M34.3006 6.25997C34.2127 5.91497 34.0341 5.91497 33.9448 5.91497L34.4792 5.73919L36.2622 7.20838L35.993 5.82446C35.9051 5.65262 35.8131 5.48208 35.6386 5.48208L36.3488 5.39551C36.2622 5.48208 36.1716 5.48208 36.1716 5.73919L36.7059 7.72784C36.5287 7.81048 36.3488 7.72784 36.2622 7.63995L34.4792 6.25997L34.8363 7.63995C34.9256 7.89837 35.0136 7.89837 35.1028 7.98626L34.4792 8.07153C34.5685 7.98626 34.6591 7.98626 34.6591 7.72915L34.3006 6.25997Z" fill="#F0CF1B"/>
<path fill-rule="evenodd" clip-rule="evenodd" d="M38.0444 5.04883L39.2917 6.86039C39.381 7.03748 39.4703 7.03748 39.5582 7.12143L38.8466 7.29196C38.9345 7.20801 38.9345 7.12143 38.9345 7.12143C38.9345 7.03748 38.9345 6.95221 38.8466 6.95221L38.5787 6.43144L38.0457 6.51801V6.2596L38.4029 6.17302L38.0457 5.65224L38.0444 5.04883ZM37.6872 5.39514V5.30987C37.6872 5.22198 37.598 5.22198 37.5073 5.13409L38.0444 5.04883L38.0457 5.65224L37.9551 5.39514L37.7779 6.34224L38.0457 6.2596V6.51801L37.6872 6.60459L37.598 7.2067V7.29065C37.598 7.37854 37.6872 7.37854 37.7779 7.46774L37.0649 7.553C37.2435 7.37854 37.2435 7.20538 37.3314 7.11881L37.6872 5.39514Z" fill="#F0CF1B"/>
<path fill-rule="evenodd" clip-rule="evenodd" d="M39.915 5.13369C39.915 5.04842 39.915 5.04842 39.915 5.04842C39.915 4.87658 39.8257 4.87658 39.7378 4.79L40.3614 4.69949L41.3395 6.34183L41.786 4.61423L42.4096 4.53027C42.3217 4.61423 42.3217 4.69949 42.3217 4.79L42.7668 6.42972C42.7668 6.60419 42.856 6.68814 43.0333 6.77603L42.2324 6.85998C42.4096 6.77734 42.4096 6.6055 42.4096 6.51761L41.9632 4.96185L41.4288 6.9505C41.3395 6.9505 41.1623 6.77603 41.0717 6.60419L40.1815 5.13238V6.68683C40.1815 6.85736 40.1815 6.94918 40.3614 7.03576L39.7378 7.11972C39.8244 7.03576 39.915 6.85867 39.915 6.77603V5.13369Z" fill="#F0CF1B"/>
<path fill-rule="evenodd" clip-rule="evenodd" d="M48.377 4.44336H48.6436L49.4471 6.4307C49.5364 6.60516 49.6257 6.60516 49.7136 6.77701L48.9128 6.68912C49.09 6.68912 49.09 6.60516 49.09 6.60516C49.09 6.51859 49.09 6.4307 49.0007 6.4307L48.8235 5.82466H48.377V5.56624H48.7342L48.4677 4.69916L48.377 4.79098V4.44336ZM48.1998 4.6152V4.53125C48.1998 4.44467 48.1998 4.44467 48.1105 4.44467L48.377 4.44336V4.79229L48.1105 5.56755L48.377 5.56624V5.82466H47.932L47.7548 6.43201C47.6655 6.43201 47.6655 6.51859 47.6655 6.51859C47.6655 6.60516 47.7548 6.60516 47.844 6.68912L47.1311 6.60516C47.311 6.51859 47.4003 6.3415 47.4882 6.25885L48.1998 4.6152Z" fill="#F0CF1B"/>
<path fill-rule="evenodd" clip-rule="evenodd" d="M50.1612 4.79C50.1612 4.61423 50.1612 4.53027 50.072 4.44238L50.6956 4.52896C50.6063 4.61291 50.6063 4.69818 50.5184 4.78869L50.4291 5.99684C50.3398 6.5163 50.6956 6.60287 50.8742 6.68683C51.3193 6.68683 51.4978 6.5163 51.5858 6.25657L51.6764 5.0458C51.7657 4.78738 51.6764 4.69687 51.5858 4.6116L52.2094 4.69687C52.1201 4.78738 52.0322 4.87396 52.0322 5.0458L51.855 6.60287C51.855 6.77472 51.855 6.94918 52.0322 6.94918H51.4978V6.68683C51.4099 6.77472 51.3193 6.94918 50.7862 6.94918C50.1626 6.85736 49.9827 6.42841 49.9827 6.08341L50.1612 4.79Z" fill="#F0CF1B"/>
<path fill-rule="evenodd" clip-rule="evenodd" d="M53.4571 4.87694H53.545C53.6316 4.87694 53.9915 4.96221 54.0807 5.04879L53.9915 5.39509C53.9022 5.30983 53.6316 5.13405 53.3664 5.13405C53.2785 5.04879 53.0986 5.13405 53.0107 5.22063C52.9214 5.22063 52.9214 5.30852 52.9214 5.30852C52.9214 5.48167 53.0986 5.6522 53.2785 5.73747L53.633 5.9972C53.8129 6.17167 54.0807 6.34088 53.9928 6.60324C53.9035 7.11877 53.4571 7.29061 52.8334 7.20534C52.6562 7.20534 52.4763 7.11877 52.2991 7.03481V6.60193C52.4763 6.77377 52.7428 6.94823 52.9227 6.94823C53.1892 6.94823 53.4584 6.94824 53.5464 6.77377C53.5464 6.68588 53.5464 6.68588 53.5464 6.68588C53.5464 6.51535 53.4584 6.33826 53.2799 6.17035L52.9227 5.99589C52.7428 5.82142 52.4763 5.64958 52.4763 5.39247C52.5656 4.87694 53.012 4.79037 53.4571 4.87694Z" fill="#F0CF1B"/>
<path fill-rule="evenodd" clip-rule="evenodd" d="M54.615 7.20865C54.615 7.2926 54.5257 7.3818 54.4351 7.3818L55.148 7.55627C55.0587 7.471 54.9708 7.3818 54.9708 7.20865L55.4145 5.48366L55.681 5.56762C55.8609 5.56762 55.9475 5.6542 55.9475 5.73946L56.2154 5.39578C56.1274 5.39578 56.1274 5.39578 56.0368 5.31051L54.6123 5.04947C54.523 5.04947 54.523 5.04947 54.4323 4.96289L54.2551 5.39578C54.3417 5.31051 54.5216 5.31051 54.7881 5.39578H55.056L54.615 7.20865Z" fill="#F0CF1B"/>
<path fill-rule="evenodd" clip-rule="evenodd" d="M56.3981 5.82446C56.4874 5.48209 56.3981 5.48208 56.3088 5.39551L57.1124 5.56604C57.5561 5.73788 57.824 5.91497 57.7361 6.3413C57.6468 6.68892 57.2896 6.85945 57.0231 6.77681C57.2896 7.29233 57.4669 7.80917 57.8254 8.15941L57.3803 8.07021C57.291 8.07021 57.1138 7.98495 57.0231 7.72784L56.5767 6.68892C57.0204 6.60496 57.2869 6.60496 57.3776 6.3413V6.25997C57.3776 6.08681 57.2883 5.91497 57.0204 5.82446C56.9311 5.82446 56.8419 5.82446 56.7539 5.82446L56.3075 7.46942C56.3075 7.63864 56.3075 7.72653 56.3968 7.80917L55.6838 7.63864C55.7731 7.63864 55.8638 7.55469 55.9503 7.38022L56.3981 5.82446Z" fill="#F0CF1B"/>
<path fill-rule="evenodd" clip-rule="evenodd" d="M59.0678 6.43127C59.1571 6.43127 59.1571 6.34207 59.1571 6.34207C59.1571 6.25943 59.1571 6.25943 59.0678 6.17285L59.6035 6.34207L59.7808 8.50256C59.7808 8.67572 59.87 8.67572 59.9607 8.84887L59.2464 8.58914C59.337 8.58914 59.337 8.58914 59.425 8.50256C59.425 8.41861 59.425 8.41861 59.425 8.33072L59.337 7.7273L59.0678 7.63941V7.381L59.337 7.4702V6.60443L59.0678 6.95073V6.51785V6.43127ZM59.0678 7.63941L58.5335 7.46888L58.087 7.98441V8.06968C58.087 8.15888 58.087 8.24283 58.1763 8.24283L57.4634 8.06968C57.7326 7.98441 57.8219 7.89652 57.9112 7.80995L59.0678 6.51785L59.0665 6.95205L58.7134 7.29179L59.0678 7.381V7.63941Z" fill="#F0CF1B"/>
<path fill-rule="evenodd" clip-rule="evenodd" d="M61.0263 7.12103C61.1142 6.95181 61.0263 6.95181 61.0263 6.77734L61.65 7.03707C61.562 7.12103 61.4714 7.03708 61.3821 7.29156L60.6692 8.84863C60.8491 8.9339 60.9384 9.02441 61.1156 9.02441C61.2955 9.10968 61.562 9.19363 61.7393 9.10968L61.3821 9.45205L60.0469 8.9339C60.2254 8.84863 60.3147 8.76337 60.3147 8.67548V8.5889L61.0263 7.12103Z" fill="#F0CF1B"/>
<path fill-rule="evenodd" clip-rule="evenodd" d="M62.8999 7.89706C62.8999 7.81048 62.8999 7.63864 62.8106 7.55469L63.5209 7.80917C63.3436 7.80917 63.2557 7.89575 63.1664 8.0689L62.4535 9.53809C62.3642 9.62467 62.4535 9.88702 62.5414 9.88702L61.8298 9.62598C61.9164 9.62598 62.0098 9.5394 62.0963 9.45151L62.8999 7.89706Z" fill="#F0CF1B"/>
<path fill-rule="evenodd" clip-rule="evenodd" d="M64.5027 8.58947C64.5027 8.5029 64.5027 8.5029 64.5027 8.5029C64.592 8.41894 64.5027 8.33105 64.5027 8.33105L65.0384 8.58947L64.7719 10.6647C64.7719 10.8365 64.8585 10.9231 64.8585 11.0963L64.3241 10.75L64.4134 10.666C64.4134 10.5794 64.4134 10.4929 64.4134 10.4929L64.5 9.88944L64.3228 9.79893V9.5392L64.5 9.62578L64.6786 8.76263L64.3255 9.02498V8.67605L64.5027 8.58947ZM64.3241 10.75H64.2362C64.2349 10.75 64.2335 10.75 64.3241 10.75ZM64.3255 9.79762L63.7019 9.5392L63.2568 9.97077C63.2568 9.97077 63.1675 9.97077 63.1675 10.0587C63.1675 10.0587 63.1675 10.1466 63.1675 10.2331L62.5425 9.88813C62.8103 9.88813 62.9876 9.79762 63.0768 9.71498L64.3255 8.67605V9.02498L63.967 9.36867L64.3228 9.5392L64.3255 9.79762Z" fill="#F0CF1B"/>
<path fill-rule="evenodd" clip-rule="evenodd" d="M44.902 5.13387L45.0819 4.79004L45.1698 5.13387L45.5256 5.04857L45.4391 5.30973L45.7056 5.56564L45.3484 5.65225V5.91472L45.0819 5.73887L44.8154 5.99871V5.65225L44.4583 5.56564L44.7261 5.39503L44.5462 5.04857L44.902 5.13387Z" fill="#F0CF1B"/>
<path fill-rule="evenodd" clip-rule="evenodd" d="M42.232 7.38043C41.9628 7.38043 41.6963 7.5549 40.8048 7.89596C39.7374 8.33016 37.9544 9.10935 36.9736 9.2825L34.8362 9.5383L34.6589 10.1443C34.5697 10.1443 33.5889 12.9069 33.5889 12.9069L34.9255 12.9948C35.1027 12.9948 36.4393 13.164 37.1522 12.9948C38.2223 12.8177 39.2004 12.5619 40.1798 12.3022C41.3365 11.9585 42.6758 11.6122 43.2088 11.6975C43.9217 11.7867 44.1882 12.1277 44.1882 12.1277L44.9012 13.0814L45.7913 12.2143C45.9712 12.0425 46.5043 11.6109 47.04 11.6109C47.5757 11.6109 48.6417 11.9572 49.6239 12.2143C50.6926 12.474 51.7627 12.8177 52.9207 12.9948C53.6309 13.0814 54.8809 12.9948 55.1474 12.9948L56.484 12.9069L55.3246 9.53699L53.0993 9.2825C52.2091 9.10935 50.3381 8.33016 49.2681 7.89596C48.4672 7.55359 48.1114 7.38043 47.9328 7.38043C46.7775 7.1207 45.794 7.20728 45.0838 7.5549C44.2802 7.20728 43.3008 7.1207 42.232 7.38043Z" fill="#881D1E"/>
<path fill-rule="evenodd" clip-rule="evenodd" d="M42.2324 7.63813C42.0525 7.72602 41.786 7.80866 40.9851 8.1589C39.8257 8.58917 37.9548 9.36705 37.0646 9.53889L35.1044 9.79731L34.9272 10.2328L34.0356 12.6491L34.9272 12.7331C35.1044 12.7331 36.441 12.8196 37.1539 12.7331C38.132 12.5638 39.1141 12.3041 40.0936 11.9604C41.3395 11.6141 42.6775 11.2691 43.2118 11.357C44.102 11.5262 44.4605 11.9604 44.4605 11.9604L44.9935 12.6491L45.5279 12.0444C45.7944 11.8752 46.4194 11.357 47.043 11.357C47.5787 11.357 48.6448 11.6141 49.7148 11.9604C50.6956 12.2162 51.8536 12.5638 53.013 12.7331C53.7232 12.8196 54.9732 12.7331 55.1505 12.7331L56.0406 12.6491L55.0598 9.79731L53.0117 9.53889C52.1188 9.36836 50.2478 8.58917 49.1791 8.1589C48.2876 7.80866 48.0225 7.72602 47.8439 7.63813C46.418 7.37971 45.5265 7.55418 45.0828 7.80866C44.5471 7.55418 43.6569 7.38102 42.2324 7.63813Z" fill="#F0CF1B"/>
<path fill-rule="evenodd" clip-rule="evenodd" d="M54.5262 10.4908C54.5262 10.4908 53.5454 10.4042 52.9217 10.2323C51.4079 9.96999 48.1097 8.41685 47.6647 8.33028C45.7924 7.98528 45.1687 8.5887 45.0821 8.76316C44.9022 8.59001 44.2785 7.98528 42.4076 8.33028C41.9612 8.41685 38.6657 9.96999 37.1519 10.2323C36.6162 10.4029 35.5474 10.4908 35.5474 10.4908L35.0117 12.0439C35.0117 12.0439 36.3483 12.1292 36.972 12.0439C39.3786 11.6136 42.1397 10.4908 43.387 10.6639C44.5437 10.8358 44.9901 11.5258 44.9901 11.5258C44.9901 11.5258 45.8803 10.6639 47.0397 10.6639C48.2856 10.6639 50.7829 11.6136 53.0976 12.0439C53.7199 12.1292 55.0578 12.0439 55.0578 12.0439L54.5262 10.4908Z" fill="url(#paint33_linear_129_3459)"/>
<defs>
<linearGradient id="paint0_linear_129_3459" x1="18.0697" y1="49.1948" x2="73.3979" y2="49.1948" gradientUnits="userSpaceOnUse">
<stop stop-color="#881D1E"/>
<stop offset="0.54" stop-color="#BC2438"/>
<stop offset="1" stop-color="#881D1E"/>
</linearGradient>
<linearGradient id="paint1_linear_129_3459" x1="23.0617" y1="76.8307" x2="26.9061" y2="76.4837" gradientUnits="userSpaceOnUse">
<stop stop-color="#881D1E"/>
<stop offset="0.54" stop-color="#BC2438"/>
<stop offset="1" stop-color="#881D1E"/>
</linearGradient>
<linearGradient id="paint2_linear_129_3459" x1="26.7682" y1="76.6362" x2="20.6039" y2="77.5295" gradientUnits="userSpaceOnUse">
<stop stop-color="#881D1E"/>
<stop offset="0.54" stop-color="#BC2438"/>
<stop offset="1" stop-color="#881D1E"/>
</linearGradient>
<linearGradient id="paint3_linear_129_3459" x1="21.7764" y1="72.6497" x2="70.153" y2="72.6497" gradientUnits="userSpaceOnUse">
<stop stop-color="#881D1E"/>
<stop offset="0.54" stop-color="#BC2438"/>
<stop offset="1" stop-color="#881D1E"/>
</linearGradient>
<linearGradient id="paint4_linear_129_3459" x1="63.8524" y1="76.5453" x2="67.3788" y2="76.5453" gradientUnits="userSpaceOnUse">
<stop stop-color="#881D1E"/>
<stop offset="0.54" stop-color="#BC2438"/>
<stop offset="1" stop-color="#881D1E"/>
</linearGradient>
<linearGradient id="paint5_linear_129_3459" x1="63.8973" y1="76.1708" x2="70.353" y2="77.8308" gradientUnits="userSpaceOnUse">
<stop stop-color="#881D1E"/>
<stop offset="0.54" stop-color="#BC2438"/>
<stop offset="1" stop-color="#881D1E"/>
</linearGradient>
<linearGradient id="paint6_linear_129_3459" x1="6.93069" y1="30.3967" x2="12.4428" y2="30.3967" gradientUnits="userSpaceOnUse">
<stop stop-color="#881D1E"/>
<stop offset="0.54" stop-color="#BC2438"/>
<stop offset="1" stop-color="#881D1E"/>
</linearGradient>
<linearGradient id="paint7_linear_129_3459" x1="6.92903" y1="20.5661" x2="10.5007" y2="20.5661" gradientUnits="userSpaceOnUse">
<stop stop-color="#881D1E"/>
<stop offset="0.54" stop-color="#BC2438"/>
<stop offset="1" stop-color="#881D1E"/>
</linearGradient>
<linearGradient id="paint8_linear_129_3459" x1="11.8779" y1="20.9868" x2="13.0672" y2="20.9868" gradientUnits="userSpaceOnUse">
<stop stop-color="#881D1E"/>
<stop offset="0.54" stop-color="#BC2438"/>
<stop offset="1" stop-color="#881D1E"/>
</linearGradient>
<linearGradient id="paint9_linear_129_3459" x1="8.16806" y1="52.3475" x2="13.6547" y2="52.3475" gradientUnits="userSpaceOnUse">
<stop stop-color="#881D1E"/>
<stop offset="0.54" stop-color="#BC2438"/>
<stop offset="1" stop-color="#881D1E"/>
</linearGradient>
<linearGradient id="paint10_linear_129_3459" x1="10.6425" y1="62.9614" x2="14.2142" y2="62.9614" gradientUnits="userSpaceOnUse">
<stop stop-color="#881D1E"/>
<stop offset="0.54" stop-color="#BC2438"/>
<stop offset="1" stop-color="#881D1E"/>
</linearGradient>
<linearGradient id="paint11_linear_129_3459" x1="9.40323" y1="62.5405" x2="10.5892" y2="62.5405" gradientUnits="userSpaceOnUse">
<stop stop-color="#881D1E"/>
<stop offset="0.54" stop-color="#BC2438"/>
<stop offset="1" stop-color="#881D1E"/>
</linearGradient>
<linearGradient id="paint12_linear_129_3459" x1="8.16806" y1="40.551" x2="12.7517" y2="40.551" gradientUnits="userSpaceOnUse">
<stop stop-color="#881D1E"/>
<stop offset="0.54" stop-color="#BC2438"/>
<stop offset="1" stop-color="#881D1E"/>
</linearGradient>
<linearGradient id="paint13_linear_129_3459" x1="5.68989" y1="43.9247" x2="8.33113" y2="43.9247" gradientUnits="userSpaceOnUse">
<stop stop-color="#881D1E"/>
<stop offset="0.54" stop-color="#BC2438"/>
<stop offset="1" stop-color="#881D1E"/>
</linearGradient>
<linearGradient id="paint14_linear_129_3459" x1="4.45425" y1="49.2911" x2="9.11012" y2="49.2911" gradientUnits="userSpaceOnUse">
<stop stop-color="#881D1E"/>
<stop offset="0.54" stop-color="#BC2438"/>
<stop offset="1" stop-color="#881D1E"/>
</linearGradient>
<linearGradient id="paint15_linear_129_3459" x1="13.1168" y1="44.2248" x2="15.7729" y2="44.2248" gradientUnits="userSpaceOnUse">
<stop stop-color="#881D1E"/>
<stop offset="0.54" stop-color="#BC2438"/>
<stop offset="1" stop-color="#881D1E"/>
</linearGradient>
<linearGradient id="paint16_linear_129_3459" x1="13.1178" y1="49.4335" x2="17.7582" y2="49.4335" gradientUnits="userSpaceOnUse">
<stop stop-color="#881D1E"/>
<stop offset="0.54" stop-color="#BC2438"/>
<stop offset="1" stop-color="#881D1E"/>
</linearGradient>
<linearGradient id="paint17_linear_129_3459" x1="77.4636" y1="30.3967" x2="82.9754" y2="30.3967" gradientUnits="userSpaceOnUse">
<stop stop-color="#881D1E"/>
<stop offset="0.54" stop-color="#BC2438"/>
<stop offset="1" stop-color="#881D1E"/>
</linearGradient>
<linearGradient id="paint18_linear_129_3459" x1="79.9371" y1="20.5658" x2="83.5069" y2="20.5658" gradientUnits="userSpaceOnUse">
<stop stop-color="#881D1E"/>
<stop offset="0.54" stop-color="#BC2438"/>
<stop offset="1" stop-color="#881D1E"/>
</linearGradient>
<linearGradient id="paint19_linear_129_3459" x1="78.6991" y1="20.9868" x2="79.8893" y2="20.9868" gradientUnits="userSpaceOnUse">
<stop stop-color="#881D1E"/>
<stop offset="0.54" stop-color="#BC2438"/>
<stop offset="1" stop-color="#881D1E"/>
</linearGradient>
<linearGradient id="paint20_linear_129_3459" x1="76.2272" y1="52.3475" x2="81.7154" y2="52.3475" gradientUnits="userSpaceOnUse">
<stop stop-color="#881D1E"/>
<stop offset="0.54" stop-color="#BC2438"/>
<stop offset="1" stop-color="#881D1E"/>
</linearGradient>
<linearGradient id="paint21_linear_129_3459" x1="76.2255" y1="62.9614" x2="79.796" y2="62.9614" gradientUnits="userSpaceOnUse">
<stop stop-color="#881D1E"/>
<stop offset="0.54" stop-color="#BC2438"/>
<stop offset="1" stop-color="#881D1E"/>
</linearGradient>
<linearGradient id="paint22_linear_129_3459" x1="79.9386" y1="62.5405" x2="81.1224" y2="62.5405" gradientUnits="userSpaceOnUse">
<stop stop-color="#881D1E"/>
<stop offset="0.54" stop-color="#BC2438"/>
<stop offset="1" stop-color="#881D1E"/>
</linearGradient>
<linearGradient id="paint23_linear_129_3459" x1="77.4584" y1="40.5519" x2="82.045" y2="40.5519" gradientUnits="userSpaceOnUse">
<stop stop-color="#881D1E"/>
<stop offset="0.54" stop-color="#BC2438"/>
<stop offset="1" stop-color="#881D1E"/>
</linearGradient>
<linearGradient id="paint24_linear_129_3459" x1="82.4108" y1="43.9247" x2="85.0544" y2="43.9247" gradientUnits="userSpaceOnUse">
<stop stop-color="#881D1E"/>
<stop offset="0.54" stop-color="#BC2438"/>
<stop offset="1" stop-color="#881D1E"/>
</linearGradient>
<linearGradient id="paint25_linear_129_3459" x1="82.413" y1="49.2911" x2="87.0697" y2="49.2911" gradientUnits="userSpaceOnUse">
<stop stop-color="#881D1E"/>
<stop offset="0.54" stop-color="#BC2438"/>
<stop offset="1" stop-color="#881D1E"/>
</linearGradient>
<linearGradient id="paint26_linear_129_3459" x1="74.9878" y1="44.2248" x2="77.6432" y2="44.2248" gradientUnits="userSpaceOnUse">
<stop stop-color="#881D1E"/>
<stop offset="0.54" stop-color="#BC2438"/>
<stop offset="1" stop-color="#881D1E"/>
</linearGradient>
<linearGradient id="paint27_linear_129_3459" x1="72.5173" y1="49.4335" x2="77.1541" y2="49.4335" gradientUnits="userSpaceOnUse">
<stop stop-color="#881D1E"/>
<stop offset="0.54" stop-color="#BC2438"/>
<stop offset="1" stop-color="#881D1E"/>
</linearGradient>
<linearGradient id="paint28_linear_129_3459" x1="64.2687" y1="9.41273" x2="69.5817" y2="0.293791" gradientUnits="userSpaceOnUse">
<stop stop-color="#881D1E"/>
<stop offset="0.54" stop-color="#BC2438"/>
<stop offset="1" stop-color="#881D1E"/>
</linearGradient>
<linearGradient id="paint29_linear_129_3459" x1="74.1611" y1="1.38709" x2="66.2924" y2="12.5565" gradientUnits="userSpaceOnUse">
<stop stop-color="#881D1E"/>
<stop offset="0.54" stop-color="#BC2438"/>
<stop offset="1" stop-color="#881D1E"/>
</linearGradient>
<linearGradient id="paint30_linear_129_3459" x1="21.267" y1="8.8669" x2="26.641" y2="-0.356797" gradientUnits="userSpaceOnUse">
<stop stop-color="#881D1E"/>
<stop offset="0.54" stop-color="#BC2438"/>
<stop offset="1" stop-color="#881D1E"/>
</linearGradient>
<linearGradient id="paint31_linear_129_3459" x1="24.1703" y1="1.90787" x2="16.3019" y2="13.0768" gradientUnits="userSpaceOnUse">
<stop stop-color="#881D1E"/>
<stop offset="0.54" stop-color="#BC2438"/>
<stop offset="1" stop-color="#881D1E"/>
</linearGradient>
<linearGradient id="paint32_linear_129_3459" x1="21.7786" y1="8.20187" x2="69.7099" y2="8.20187" gradientUnits="userSpaceOnUse">
<stop stop-color="#881D1E"/>
<stop offset="0.54" stop-color="#BC2438"/>
<stop offset="1" stop-color="#881D1E"/>
</linearGradient>
<linearGradient id="paint33_linear_129_3459" x1="35.3893" y1="10.1534" x2="55.4359" y2="10.1534" gradientUnits="userSpaceOnUse">
<stop stop-color="#881D1E"/>
<stop offset="0.54" stop-color="#BC2438"/>
<stop offset="1" stop-color="#881D1E"/>
</linearGradient>
</defs>
</svg>