<svg xmlns:xlink="http://www.w3.org/1999/xlink" xmlns="http://www.w3.org/2000/svg" viewBox="0 0 42 16.81" width="106"  height="42" ><defs><style>.cls-1{fill:#e65a26;}</style></defs><g id="Layer_2" data-name="Layer 2"><g id="Layer_1-2" data-name="Layer 1"><path class="cls-1" d="M12.6,0V7.35A9.44,9.44,0,0,1,3.15,16.8H0V0H3.15V13.69A6.33,6.33,0,0,0,9.48,7.35V0Z" fill="#E65A26"></path><path class="cls-1" d="M27.3,4.73V16.8H24.15V4.72a1.57,1.57,0,0,0-1.58-1.57H17.85V16.8H14.7V0h7.87a4.64,4.64,0,0,1,1.58.27A4.75,4.75,0,0,1,27,3.15,4.81,4.81,0,0,1,27.3,4.73Z" fill="#E65A26"></path><path class="cls-1" d="M34.64,10h4.2s0,2,0,2.1a1.58,1.58,0,0,1-1.58,1.58H34.13a1.58,1.58,0,0,1-1.58-1.54V4.74a1.57,1.57,0,0,1,1.57-1.57H39.9V0H34.12a4.54,4.54,0,0,0-1.57.27,4.77,4.77,0,0,0-2.89,2.88,4.8,4.8,0,0,0-.26,1.58v7.33a4.85,4.85,0,0,0,.26,1.58,4.74,4.74,0,0,0,2.89,2.88,4.54,4.54,0,0,0,1.57.27h3.15a4.54,4.54,0,0,0,1.57-.27,4.72,4.72,0,0,0,2.89-2.88A4.84,4.84,0,0,0,42,12.09V6.84H34.64Z" fill="#E65A26"></path></g></g></svg>